<svg xmlns="http://www.w3.org/2000/svg" xmlns:xlink="http://www.w3.org/1999/xlink" version="1.1" width="5.500in" height="4.000in" viewBox="0 0 5400 3927">
	<desc>Stata Graph - Graph</desc>
	<rect x="0" y="0" width="5400" height="3927" style="fill:#FFFFFF;stroke:none"/>
	<rect x="0.00" y="0.00" width="5400.00" height="3927.00" style="fill:#FFFFFF"/>
	<rect x="3.24" y="3.24" width="5393.52" height="3920.52" style="fill:none;stroke:#FFFFFF;stroke-width:6.48"/>
	<rect x="557.04" y="137.45" width="4729.56" height="3215.84" style="fill:#FFFFFF"/>
	<rect x="560.28" y="140.69" width="4723.08" height="3209.36" style="fill:none;stroke:#FFFFFF;stroke-width:6.48"/>
	<line x1="557.04" y1="3353.29" x2="621.84" y2="3353.29" style="stroke:#F0F0F0;stroke-width:9.72"/>
	<line x1="654.24" y1="3353.29" x2="719.04" y2="3353.29" style="stroke:#F0F0F0;stroke-width:9.72"/>
	<line x1="751.44" y1="3353.29" x2="816.24" y2="3353.29" style="stroke:#F0F0F0;stroke-width:9.72"/>
	<line x1="848.64" y1="3353.29" x2="913.44" y2="3353.29" style="stroke:#F0F0F0;stroke-width:9.72"/>
	<line x1="945.84" y1="3353.29" x2="1010.64" y2="3353.29" style="stroke:#F0F0F0;stroke-width:9.72"/>
	<line x1="1043.04" y1="3353.29" x2="1107.84" y2="3353.29" style="stroke:#F0F0F0;stroke-width:9.72"/>
	<line x1="1140.24" y1="3353.29" x2="1205.04" y2="3353.29" style="stroke:#F0F0F0;stroke-width:9.72"/>
	<line x1="1237.44" y1="3353.29" x2="1302.24" y2="3353.29" style="stroke:#F0F0F0;stroke-width:9.72"/>
	<line x1="1334.64" y1="3353.29" x2="1399.44" y2="3353.29" style="stroke:#F0F0F0;stroke-width:9.72"/>
	<line x1="1431.84" y1="3353.29" x2="1496.64" y2="3353.29" style="stroke:#F0F0F0;stroke-width:9.72"/>
	<line x1="1529.04" y1="3353.29" x2="1593.84" y2="3353.29" style="stroke:#F0F0F0;stroke-width:9.72"/>
	<line x1="1626.24" y1="3353.29" x2="1691.04" y2="3353.29" style="stroke:#F0F0F0;stroke-width:9.72"/>
	<line x1="1723.44" y1="3353.29" x2="1788.24" y2="3353.29" style="stroke:#F0F0F0;stroke-width:9.72"/>
	<line x1="1820.64" y1="3353.29" x2="1885.44" y2="3353.29" style="stroke:#F0F0F0;stroke-width:9.72"/>
	<line x1="1917.84" y1="3353.29" x2="1982.64" y2="3353.29" style="stroke:#F0F0F0;stroke-width:9.72"/>
	<line x1="2015.04" y1="3353.29" x2="2079.84" y2="3353.29" style="stroke:#F0F0F0;stroke-width:9.72"/>
	<line x1="2112.24" y1="3353.29" x2="2177.04" y2="3353.29" style="stroke:#F0F0F0;stroke-width:9.72"/>
	<line x1="2209.44" y1="3353.29" x2="2274.24" y2="3353.29" style="stroke:#F0F0F0;stroke-width:9.72"/>
	<line x1="2306.64" y1="3353.29" x2="2371.44" y2="3353.29" style="stroke:#F0F0F0;stroke-width:9.72"/>
	<line x1="2403.84" y1="3353.29" x2="2468.64" y2="3353.29" style="stroke:#F0F0F0;stroke-width:9.72"/>
	<line x1="2501.04" y1="3353.29" x2="2565.84" y2="3353.29" style="stroke:#F0F0F0;stroke-width:9.72"/>
	<line x1="2598.24" y1="3353.29" x2="2663.04" y2="3353.29" style="stroke:#F0F0F0;stroke-width:9.72"/>
	<line x1="2695.44" y1="3353.29" x2="2760.24" y2="3353.29" style="stroke:#F0F0F0;stroke-width:9.72"/>
	<line x1="2792.64" y1="3353.29" x2="2857.44" y2="3353.29" style="stroke:#F0F0F0;stroke-width:9.72"/>
	<line x1="2889.84" y1="3353.29" x2="2954.64" y2="3353.29" style="stroke:#F0F0F0;stroke-width:9.72"/>
	<line x1="2987.04" y1="3353.29" x2="3051.84" y2="3353.29" style="stroke:#F0F0F0;stroke-width:9.72"/>
	<line x1="3084.24" y1="3353.29" x2="3149.04" y2="3353.29" style="stroke:#F0F0F0;stroke-width:9.72"/>
	<line x1="3181.44" y1="3353.29" x2="3246.24" y2="3353.29" style="stroke:#F0F0F0;stroke-width:9.72"/>
	<line x1="3278.64" y1="3353.29" x2="3343.44" y2="3353.29" style="stroke:#F0F0F0;stroke-width:9.72"/>
	<line x1="3375.84" y1="3353.29" x2="3440.64" y2="3353.29" style="stroke:#F0F0F0;stroke-width:9.72"/>
	<line x1="3473.04" y1="3353.29" x2="3537.84" y2="3353.29" style="stroke:#F0F0F0;stroke-width:9.72"/>
	<line x1="3570.24" y1="3353.29" x2="3635.04" y2="3353.29" style="stroke:#F0F0F0;stroke-width:9.72"/>
	<line x1="3667.44" y1="3353.29" x2="3732.24" y2="3353.29" style="stroke:#F0F0F0;stroke-width:9.72"/>
	<line x1="3764.64" y1="3353.29" x2="3829.44" y2="3353.29" style="stroke:#F0F0F0;stroke-width:9.72"/>
	<line x1="3861.84" y1="3353.29" x2="3926.64" y2="3353.29" style="stroke:#F0F0F0;stroke-width:9.72"/>
	<line x1="3959.04" y1="3353.29" x2="4023.84" y2="3353.29" style="stroke:#F0F0F0;stroke-width:9.72"/>
	<line x1="4056.24" y1="3353.29" x2="4121.04" y2="3353.29" style="stroke:#F0F0F0;stroke-width:9.72"/>
	<line x1="4153.44" y1="3353.29" x2="4218.24" y2="3353.29" style="stroke:#F0F0F0;stroke-width:9.72"/>
	<line x1="4250.64" y1="3353.29" x2="4315.44" y2="3353.29" style="stroke:#F0F0F0;stroke-width:9.72"/>
	<line x1="4347.84" y1="3353.29" x2="4412.64" y2="3353.29" style="stroke:#F0F0F0;stroke-width:9.72"/>
	<line x1="4445.04" y1="3353.29" x2="4509.84" y2="3353.29" style="stroke:#F0F0F0;stroke-width:9.72"/>
	<line x1="4542.24" y1="3353.29" x2="4607.04" y2="3353.29" style="stroke:#F0F0F0;stroke-width:9.72"/>
	<line x1="4639.44" y1="3353.29" x2="4704.24" y2="3353.29" style="stroke:#F0F0F0;stroke-width:9.72"/>
	<line x1="4736.64" y1="3353.29" x2="4801.44" y2="3353.29" style="stroke:#F0F0F0;stroke-width:9.72"/>
	<line x1="4833.84" y1="3353.29" x2="4898.64" y2="3353.29" style="stroke:#F0F0F0;stroke-width:9.72"/>
	<line x1="4931.04" y1="3353.29" x2="4995.84" y2="3353.29" style="stroke:#F0F0F0;stroke-width:9.72"/>
	<line x1="5028.24" y1="3353.29" x2="5093.04" y2="3353.29" style="stroke:#F0F0F0;stroke-width:9.72"/>
	<line x1="5125.44" y1="3353.29" x2="5190.24" y2="3353.29" style="stroke:#F0F0F0;stroke-width:9.72"/>
	<line x1="5222.64" y1="3353.29" x2="5286.60" y2="3353.29" style="stroke:#F0F0F0;stroke-width:9.72"/>
	<line x1="557.04" y1="2310.18" x2="621.84" y2="2310.18" style="stroke:#F0F0F0;stroke-width:9.72"/>
	<line x1="654.24" y1="2310.18" x2="719.04" y2="2310.18" style="stroke:#F0F0F0;stroke-width:9.72"/>
	<line x1="751.44" y1="2310.18" x2="816.24" y2="2310.18" style="stroke:#F0F0F0;stroke-width:9.72"/>
	<line x1="848.64" y1="2310.18" x2="913.44" y2="2310.18" style="stroke:#F0F0F0;stroke-width:9.72"/>
	<line x1="945.84" y1="2310.18" x2="1010.64" y2="2310.18" style="stroke:#F0F0F0;stroke-width:9.72"/>
	<line x1="1043.04" y1="2310.18" x2="1107.84" y2="2310.18" style="stroke:#F0F0F0;stroke-width:9.72"/>
	<line x1="1140.24" y1="2310.18" x2="1205.04" y2="2310.18" style="stroke:#F0F0F0;stroke-width:9.72"/>
	<line x1="1237.44" y1="2310.18" x2="1302.24" y2="2310.18" style="stroke:#F0F0F0;stroke-width:9.72"/>
	<line x1="1334.64" y1="2310.18" x2="1399.44" y2="2310.18" style="stroke:#F0F0F0;stroke-width:9.72"/>
	<line x1="1431.84" y1="2310.18" x2="1496.64" y2="2310.18" style="stroke:#F0F0F0;stroke-width:9.72"/>
	<line x1="1529.04" y1="2310.18" x2="1593.84" y2="2310.18" style="stroke:#F0F0F0;stroke-width:9.72"/>
	<line x1="1626.24" y1="2310.18" x2="1691.04" y2="2310.18" style="stroke:#F0F0F0;stroke-width:9.72"/>
	<line x1="1723.44" y1="2310.18" x2="1788.24" y2="2310.18" style="stroke:#F0F0F0;stroke-width:9.72"/>
	<line x1="1820.64" y1="2310.18" x2="1885.44" y2="2310.18" style="stroke:#F0F0F0;stroke-width:9.72"/>
	<line x1="1917.84" y1="2310.18" x2="1982.64" y2="2310.18" style="stroke:#F0F0F0;stroke-width:9.72"/>
	<line x1="2015.04" y1="2310.18" x2="2079.84" y2="2310.18" style="stroke:#F0F0F0;stroke-width:9.72"/>
	<line x1="2112.24" y1="2310.18" x2="2177.04" y2="2310.18" style="stroke:#F0F0F0;stroke-width:9.72"/>
	<line x1="2209.44" y1="2310.18" x2="2274.24" y2="2310.18" style="stroke:#F0F0F0;stroke-width:9.72"/>
	<line x1="2306.64" y1="2310.18" x2="2371.44" y2="2310.18" style="stroke:#F0F0F0;stroke-width:9.72"/>
	<line x1="2403.84" y1="2310.18" x2="2468.64" y2="2310.18" style="stroke:#F0F0F0;stroke-width:9.72"/>
	<line x1="2501.04" y1="2310.18" x2="2565.84" y2="2310.18" style="stroke:#F0F0F0;stroke-width:9.72"/>
	<line x1="2598.24" y1="2310.18" x2="2663.04" y2="2310.18" style="stroke:#F0F0F0;stroke-width:9.72"/>
	<line x1="2695.44" y1="2310.18" x2="2760.24" y2="2310.18" style="stroke:#F0F0F0;stroke-width:9.72"/>
	<line x1="2792.64" y1="2310.18" x2="2857.44" y2="2310.18" style="stroke:#F0F0F0;stroke-width:9.72"/>
	<line x1="2889.84" y1="2310.18" x2="2954.64" y2="2310.18" style="stroke:#F0F0F0;stroke-width:9.72"/>
	<line x1="2987.04" y1="2310.18" x2="3051.84" y2="2310.18" style="stroke:#F0F0F0;stroke-width:9.72"/>
	<line x1="3084.24" y1="2310.18" x2="3149.04" y2="2310.18" style="stroke:#F0F0F0;stroke-width:9.72"/>
	<line x1="3181.44" y1="2310.18" x2="3246.24" y2="2310.18" style="stroke:#F0F0F0;stroke-width:9.72"/>
	<line x1="3278.64" y1="2310.18" x2="3343.44" y2="2310.18" style="stroke:#F0F0F0;stroke-width:9.72"/>
	<line x1="3375.84" y1="2310.18" x2="3440.64" y2="2310.18" style="stroke:#F0F0F0;stroke-width:9.72"/>
	<line x1="3473.04" y1="2310.18" x2="3537.84" y2="2310.18" style="stroke:#F0F0F0;stroke-width:9.72"/>
	<line x1="3570.24" y1="2310.18" x2="3635.04" y2="2310.18" style="stroke:#F0F0F0;stroke-width:9.72"/>
	<line x1="3667.44" y1="2310.18" x2="3732.24" y2="2310.18" style="stroke:#F0F0F0;stroke-width:9.72"/>
	<line x1="3764.64" y1="2310.18" x2="3829.44" y2="2310.18" style="stroke:#F0F0F0;stroke-width:9.72"/>
	<line x1="3861.84" y1="2310.18" x2="3926.64" y2="2310.18" style="stroke:#F0F0F0;stroke-width:9.72"/>
	<line x1="3959.04" y1="2310.18" x2="4023.84" y2="2310.18" style="stroke:#F0F0F0;stroke-width:9.72"/>
	<line x1="4056.24" y1="2310.18" x2="4121.04" y2="2310.18" style="stroke:#F0F0F0;stroke-width:9.72"/>
	<line x1="4153.44" y1="2310.18" x2="4218.24" y2="2310.18" style="stroke:#F0F0F0;stroke-width:9.72"/>
	<line x1="4250.64" y1="2310.18" x2="4315.44" y2="2310.18" style="stroke:#F0F0F0;stroke-width:9.72"/>
	<line x1="4347.84" y1="2310.18" x2="4412.64" y2="2310.18" style="stroke:#F0F0F0;stroke-width:9.72"/>
	<line x1="4445.04" y1="2310.18" x2="4509.84" y2="2310.18" style="stroke:#F0F0F0;stroke-width:9.72"/>
	<line x1="4542.24" y1="2310.18" x2="4607.04" y2="2310.18" style="stroke:#F0F0F0;stroke-width:9.72"/>
	<line x1="4639.44" y1="2310.18" x2="4704.24" y2="2310.18" style="stroke:#F0F0F0;stroke-width:9.72"/>
	<line x1="4736.64" y1="2310.18" x2="4801.44" y2="2310.18" style="stroke:#F0F0F0;stroke-width:9.72"/>
	<line x1="4833.84" y1="2310.18" x2="4898.64" y2="2310.18" style="stroke:#F0F0F0;stroke-width:9.72"/>
	<line x1="4931.04" y1="2310.18" x2="4995.84" y2="2310.18" style="stroke:#F0F0F0;stroke-width:9.72"/>
	<line x1="5028.24" y1="2310.18" x2="5093.04" y2="2310.18" style="stroke:#F0F0F0;stroke-width:9.72"/>
	<line x1="5125.44" y1="2310.18" x2="5190.24" y2="2310.18" style="stroke:#F0F0F0;stroke-width:9.72"/>
	<line x1="5222.64" y1="2310.18" x2="5286.60" y2="2310.18" style="stroke:#F0F0F0;stroke-width:9.72"/>
	<line x1="557.04" y1="1267.07" x2="621.84" y2="1267.07" style="stroke:#F0F0F0;stroke-width:9.72"/>
	<line x1="654.24" y1="1267.07" x2="719.04" y2="1267.07" style="stroke:#F0F0F0;stroke-width:9.72"/>
	<line x1="751.44" y1="1267.07" x2="816.24" y2="1267.07" style="stroke:#F0F0F0;stroke-width:9.72"/>
	<line x1="848.64" y1="1267.07" x2="913.44" y2="1267.07" style="stroke:#F0F0F0;stroke-width:9.72"/>
	<line x1="945.84" y1="1267.07" x2="1010.64" y2="1267.07" style="stroke:#F0F0F0;stroke-width:9.72"/>
	<line x1="1043.04" y1="1267.07" x2="1107.84" y2="1267.07" style="stroke:#F0F0F0;stroke-width:9.72"/>
	<line x1="1140.24" y1="1267.07" x2="1205.04" y2="1267.07" style="stroke:#F0F0F0;stroke-width:9.72"/>
	<line x1="1237.44" y1="1267.07" x2="1302.24" y2="1267.07" style="stroke:#F0F0F0;stroke-width:9.72"/>
	<line x1="1334.64" y1="1267.07" x2="1399.44" y2="1267.07" style="stroke:#F0F0F0;stroke-width:9.72"/>
	<line x1="1431.84" y1="1267.07" x2="1496.64" y2="1267.07" style="stroke:#F0F0F0;stroke-width:9.72"/>
	<line x1="1529.04" y1="1267.07" x2="1593.84" y2="1267.07" style="stroke:#F0F0F0;stroke-width:9.72"/>
	<line x1="1626.24" y1="1267.07" x2="1691.04" y2="1267.07" style="stroke:#F0F0F0;stroke-width:9.72"/>
	<line x1="1723.44" y1="1267.07" x2="1788.24" y2="1267.07" style="stroke:#F0F0F0;stroke-width:9.72"/>
	<line x1="1820.64" y1="1267.07" x2="1885.44" y2="1267.07" style="stroke:#F0F0F0;stroke-width:9.72"/>
	<line x1="1917.84" y1="1267.07" x2="1982.64" y2="1267.07" style="stroke:#F0F0F0;stroke-width:9.72"/>
	<line x1="2015.04" y1="1267.07" x2="2079.84" y2="1267.07" style="stroke:#F0F0F0;stroke-width:9.72"/>
	<line x1="2112.24" y1="1267.07" x2="2177.04" y2="1267.07" style="stroke:#F0F0F0;stroke-width:9.72"/>
	<line x1="2209.44" y1="1267.07" x2="2274.24" y2="1267.07" style="stroke:#F0F0F0;stroke-width:9.72"/>
	<line x1="2306.64" y1="1267.07" x2="2371.44" y2="1267.07" style="stroke:#F0F0F0;stroke-width:9.72"/>
	<line x1="2403.84" y1="1267.07" x2="2468.64" y2="1267.07" style="stroke:#F0F0F0;stroke-width:9.72"/>
	<line x1="2501.04" y1="1267.07" x2="2565.84" y2="1267.07" style="stroke:#F0F0F0;stroke-width:9.72"/>
	<line x1="2598.24" y1="1267.07" x2="2663.04" y2="1267.07" style="stroke:#F0F0F0;stroke-width:9.72"/>
	<line x1="2695.44" y1="1267.07" x2="2760.24" y2="1267.07" style="stroke:#F0F0F0;stroke-width:9.72"/>
	<line x1="2792.64" y1="1267.07" x2="2857.44" y2="1267.07" style="stroke:#F0F0F0;stroke-width:9.72"/>
	<line x1="2889.84" y1="1267.07" x2="2954.64" y2="1267.07" style="stroke:#F0F0F0;stroke-width:9.72"/>
	<line x1="2987.04" y1="1267.07" x2="3051.84" y2="1267.07" style="stroke:#F0F0F0;stroke-width:9.72"/>
	<line x1="3084.24" y1="1267.07" x2="3149.04" y2="1267.07" style="stroke:#F0F0F0;stroke-width:9.72"/>
	<line x1="3181.44" y1="1267.07" x2="3246.24" y2="1267.07" style="stroke:#F0F0F0;stroke-width:9.72"/>
	<line x1="3278.64" y1="1267.07" x2="3343.44" y2="1267.07" style="stroke:#F0F0F0;stroke-width:9.72"/>
	<line x1="3375.84" y1="1267.07" x2="3440.64" y2="1267.07" style="stroke:#F0F0F0;stroke-width:9.72"/>
	<line x1="3473.04" y1="1267.07" x2="3537.84" y2="1267.07" style="stroke:#F0F0F0;stroke-width:9.72"/>
	<line x1="3570.24" y1="1267.07" x2="3635.04" y2="1267.07" style="stroke:#F0F0F0;stroke-width:9.72"/>
	<line x1="3667.44" y1="1267.07" x2="3732.24" y2="1267.07" style="stroke:#F0F0F0;stroke-width:9.72"/>
	<line x1="3764.64" y1="1267.07" x2="3829.44" y2="1267.07" style="stroke:#F0F0F0;stroke-width:9.72"/>
	<line x1="3861.84" y1="1267.07" x2="3926.64" y2="1267.07" style="stroke:#F0F0F0;stroke-width:9.72"/>
	<line x1="3959.04" y1="1267.07" x2="4023.84" y2="1267.07" style="stroke:#F0F0F0;stroke-width:9.72"/>
	<line x1="4056.24" y1="1267.07" x2="4121.04" y2="1267.07" style="stroke:#F0F0F0;stroke-width:9.72"/>
	<line x1="4153.44" y1="1267.07" x2="4218.24" y2="1267.07" style="stroke:#F0F0F0;stroke-width:9.72"/>
	<line x1="4250.64" y1="1267.07" x2="4315.44" y2="1267.07" style="stroke:#F0F0F0;stroke-width:9.72"/>
	<line x1="4347.84" y1="1267.07" x2="4412.64" y2="1267.07" style="stroke:#F0F0F0;stroke-width:9.72"/>
	<line x1="4445.04" y1="1267.07" x2="4509.84" y2="1267.07" style="stroke:#F0F0F0;stroke-width:9.72"/>
	<line x1="4542.24" y1="1267.07" x2="4607.04" y2="1267.07" style="stroke:#F0F0F0;stroke-width:9.72"/>
	<line x1="4639.44" y1="1267.07" x2="4704.24" y2="1267.07" style="stroke:#F0F0F0;stroke-width:9.72"/>
	<line x1="4736.64" y1="1267.07" x2="4801.44" y2="1267.07" style="stroke:#F0F0F0;stroke-width:9.72"/>
	<line x1="4833.84" y1="1267.07" x2="4898.64" y2="1267.07" style="stroke:#F0F0F0;stroke-width:9.72"/>
	<line x1="4931.04" y1="1267.07" x2="4995.84" y2="1267.07" style="stroke:#F0F0F0;stroke-width:9.72"/>
	<line x1="5028.24" y1="1267.07" x2="5093.04" y2="1267.07" style="stroke:#F0F0F0;stroke-width:9.72"/>
	<line x1="5125.44" y1="1267.07" x2="5190.24" y2="1267.07" style="stroke:#F0F0F0;stroke-width:9.72"/>
	<line x1="5222.64" y1="1267.07" x2="5286.60" y2="1267.07" style="stroke:#F0F0F0;stroke-width:9.72"/>
	<line x1="557.04" y1="223.76" x2="621.84" y2="223.76" style="stroke:#F0F0F0;stroke-width:9.72"/>
	<line x1="654.24" y1="223.76" x2="719.04" y2="223.76" style="stroke:#F0F0F0;stroke-width:9.72"/>
	<line x1="751.44" y1="223.76" x2="816.24" y2="223.76" style="stroke:#F0F0F0;stroke-width:9.72"/>
	<line x1="848.64" y1="223.76" x2="913.44" y2="223.76" style="stroke:#F0F0F0;stroke-width:9.72"/>
	<line x1="945.84" y1="223.76" x2="1010.64" y2="223.76" style="stroke:#F0F0F0;stroke-width:9.72"/>
	<line x1="1043.04" y1="223.76" x2="1107.84" y2="223.76" style="stroke:#F0F0F0;stroke-width:9.72"/>
	<line x1="1140.24" y1="223.76" x2="1205.04" y2="223.76" style="stroke:#F0F0F0;stroke-width:9.72"/>
	<line x1="1237.44" y1="223.76" x2="1302.24" y2="223.76" style="stroke:#F0F0F0;stroke-width:9.72"/>
	<line x1="1334.64" y1="223.76" x2="1399.44" y2="223.76" style="stroke:#F0F0F0;stroke-width:9.72"/>
	<line x1="1431.84" y1="223.76" x2="1496.64" y2="223.76" style="stroke:#F0F0F0;stroke-width:9.72"/>
	<line x1="1529.04" y1="223.76" x2="1593.84" y2="223.76" style="stroke:#F0F0F0;stroke-width:9.72"/>
	<line x1="1626.24" y1="223.76" x2="1691.04" y2="223.76" style="stroke:#F0F0F0;stroke-width:9.72"/>
	<line x1="1723.44" y1="223.76" x2="1788.24" y2="223.76" style="stroke:#F0F0F0;stroke-width:9.72"/>
	<line x1="1820.64" y1="223.76" x2="1885.44" y2="223.76" style="stroke:#F0F0F0;stroke-width:9.72"/>
	<line x1="1917.84" y1="223.76" x2="1982.64" y2="223.76" style="stroke:#F0F0F0;stroke-width:9.72"/>
	<line x1="2015.04" y1="223.76" x2="2079.84" y2="223.76" style="stroke:#F0F0F0;stroke-width:9.72"/>
	<line x1="2112.24" y1="223.76" x2="2177.04" y2="223.76" style="stroke:#F0F0F0;stroke-width:9.72"/>
	<line x1="2209.44" y1="223.76" x2="2274.24" y2="223.76" style="stroke:#F0F0F0;stroke-width:9.72"/>
	<line x1="2306.64" y1="223.76" x2="2371.44" y2="223.76" style="stroke:#F0F0F0;stroke-width:9.72"/>
	<line x1="2403.84" y1="223.76" x2="2468.64" y2="223.76" style="stroke:#F0F0F0;stroke-width:9.72"/>
	<line x1="2501.04" y1="223.76" x2="2565.84" y2="223.76" style="stroke:#F0F0F0;stroke-width:9.72"/>
	<line x1="2598.24" y1="223.76" x2="2663.04" y2="223.76" style="stroke:#F0F0F0;stroke-width:9.72"/>
	<line x1="2695.44" y1="223.76" x2="2760.24" y2="223.76" style="stroke:#F0F0F0;stroke-width:9.72"/>
	<line x1="2792.64" y1="223.76" x2="2857.44" y2="223.76" style="stroke:#F0F0F0;stroke-width:9.72"/>
	<line x1="2889.84" y1="223.76" x2="2954.64" y2="223.76" style="stroke:#F0F0F0;stroke-width:9.72"/>
	<line x1="2987.04" y1="223.76" x2="3051.84" y2="223.76" style="stroke:#F0F0F0;stroke-width:9.72"/>
	<line x1="3084.24" y1="223.76" x2="3149.04" y2="223.76" style="stroke:#F0F0F0;stroke-width:9.72"/>
	<line x1="3181.44" y1="223.76" x2="3246.24" y2="223.76" style="stroke:#F0F0F0;stroke-width:9.72"/>
	<line x1="3278.64" y1="223.76" x2="3343.44" y2="223.76" style="stroke:#F0F0F0;stroke-width:9.72"/>
	<line x1="3375.84" y1="223.76" x2="3440.64" y2="223.76" style="stroke:#F0F0F0;stroke-width:9.72"/>
	<line x1="3473.04" y1="223.76" x2="3537.84" y2="223.76" style="stroke:#F0F0F0;stroke-width:9.72"/>
	<line x1="3570.24" y1="223.76" x2="3635.04" y2="223.76" style="stroke:#F0F0F0;stroke-width:9.72"/>
	<line x1="3667.44" y1="223.76" x2="3732.24" y2="223.76" style="stroke:#F0F0F0;stroke-width:9.72"/>
	<line x1="3764.64" y1="223.76" x2="3829.44" y2="223.76" style="stroke:#F0F0F0;stroke-width:9.72"/>
	<line x1="3861.84" y1="223.76" x2="3926.64" y2="223.76" style="stroke:#F0F0F0;stroke-width:9.72"/>
	<line x1="3959.04" y1="223.76" x2="4023.84" y2="223.76" style="stroke:#F0F0F0;stroke-width:9.72"/>
	<line x1="4056.24" y1="223.76" x2="4121.04" y2="223.76" style="stroke:#F0F0F0;stroke-width:9.72"/>
	<line x1="4153.44" y1="223.76" x2="4218.24" y2="223.76" style="stroke:#F0F0F0;stroke-width:9.72"/>
	<line x1="4250.64" y1="223.76" x2="4315.44" y2="223.76" style="stroke:#F0F0F0;stroke-width:9.72"/>
	<line x1="4347.84" y1="223.76" x2="4412.64" y2="223.76" style="stroke:#F0F0F0;stroke-width:9.72"/>
	<line x1="4445.04" y1="223.76" x2="4509.84" y2="223.76" style="stroke:#F0F0F0;stroke-width:9.72"/>
	<line x1="4542.24" y1="223.76" x2="4607.04" y2="223.76" style="stroke:#F0F0F0;stroke-width:9.72"/>
	<line x1="4639.44" y1="223.76" x2="4704.24" y2="223.76" style="stroke:#F0F0F0;stroke-width:9.72"/>
	<line x1="4736.64" y1="223.76" x2="4801.44" y2="223.76" style="stroke:#F0F0F0;stroke-width:9.72"/>
	<line x1="4833.84" y1="223.76" x2="4898.64" y2="223.76" style="stroke:#F0F0F0;stroke-width:9.72"/>
	<line x1="4931.04" y1="223.76" x2="4995.84" y2="223.76" style="stroke:#F0F0F0;stroke-width:9.72"/>
	<line x1="5028.24" y1="223.76" x2="5093.04" y2="223.76" style="stroke:#F0F0F0;stroke-width:9.72"/>
	<line x1="5125.44" y1="223.76" x2="5190.24" y2="223.76" style="stroke:#F0F0F0;stroke-width:9.72"/>
	<line x1="5222.64" y1="223.76" x2="5286.60" y2="223.76" style="stroke:#F0F0F0;stroke-width:9.72"/>
	<line x1="827.72" y1="3353.29" x2="827.72" y2="3274.75" style="stroke:#F0F0F0;stroke-width:9.72"/>
	<line x1="827.72" y1="3235.48" x2="827.72" y2="3156.94" style="stroke:#F0F0F0;stroke-width:9.72"/>
	<line x1="827.72" y1="3117.67" x2="827.72" y2="3039.13" style="stroke:#F0F0F0;stroke-width:9.72"/>
	<line x1="827.72" y1="2999.86" x2="827.72" y2="2921.32" style="stroke:#F0F0F0;stroke-width:9.72"/>
	<line x1="827.72" y1="2882.05" x2="827.72" y2="2803.51" style="stroke:#F0F0F0;stroke-width:9.72"/>
	<line x1="827.72" y1="2764.24" x2="827.72" y2="2685.70" style="stroke:#F0F0F0;stroke-width:9.72"/>
	<line x1="827.72" y1="2646.43" x2="827.72" y2="2567.89" style="stroke:#F0F0F0;stroke-width:9.72"/>
	<line x1="827.72" y1="2528.62" x2="827.72" y2="2450.08" style="stroke:#F0F0F0;stroke-width:9.72"/>
	<line x1="827.72" y1="2410.81" x2="827.72" y2="2332.27" style="stroke:#F0F0F0;stroke-width:9.72"/>
	<line x1="827.72" y1="2293.00" x2="827.72" y2="2214.46" style="stroke:#F0F0F0;stroke-width:9.72"/>
	<line x1="827.72" y1="2175.19" x2="827.72" y2="2096.65" style="stroke:#F0F0F0;stroke-width:9.72"/>
	<line x1="827.72" y1="2057.38" x2="827.72" y2="1978.84" style="stroke:#F0F0F0;stroke-width:9.72"/>
	<line x1="827.72" y1="1939.57" x2="827.72" y2="1861.03" style="stroke:#F0F0F0;stroke-width:9.72"/>
	<line x1="827.72" y1="1821.76" x2="827.72" y2="1743.22" style="stroke:#F0F0F0;stroke-width:9.72"/>
	<line x1="827.72" y1="1703.95" x2="827.72" y2="1625.41" style="stroke:#F0F0F0;stroke-width:9.72"/>
	<line x1="827.72" y1="1586.14" x2="827.72" y2="1507.60" style="stroke:#F0F0F0;stroke-width:9.72"/>
	<line x1="827.72" y1="1468.33" x2="827.72" y2="1389.79" style="stroke:#F0F0F0;stroke-width:9.72"/>
	<line x1="827.72" y1="1350.52" x2="827.72" y2="1271.98" style="stroke:#F0F0F0;stroke-width:9.72"/>
	<line x1="827.72" y1="1232.71" x2="827.72" y2="1154.17" style="stroke:#F0F0F0;stroke-width:9.72"/>
	<line x1="827.72" y1="1114.90" x2="827.72" y2="1036.36" style="stroke:#F0F0F0;stroke-width:9.72"/>
	<line x1="827.72" y1="997.09" x2="827.72" y2="918.55" style="stroke:#F0F0F0;stroke-width:9.72"/>
	<line x1="827.72" y1="879.28" x2="827.72" y2="800.74" style="stroke:#F0F0F0;stroke-width:9.72"/>
	<line x1="827.72" y1="761.47" x2="827.72" y2="682.93" style="stroke:#F0F0F0;stroke-width:9.72"/>
	<line x1="827.72" y1="643.66" x2="827.72" y2="565.12" style="stroke:#F0F0F0;stroke-width:9.72"/>
	<line x1="827.72" y1="525.85" x2="827.72" y2="447.31" style="stroke:#F0F0F0;stroke-width:9.72"/>
	<line x1="827.72" y1="408.04" x2="827.72" y2="329.50" style="stroke:#F0F0F0;stroke-width:9.72"/>
	<line x1="827.72" y1="290.23" x2="827.72" y2="211.69" style="stroke:#F0F0F0;stroke-width:9.72"/>
	<line x1="827.72" y1="172.42" x2="827.72" y2="137.45" style="stroke:#F0F0F0;stroke-width:9.72"/>
	<line x1="1625.40" y1="3353.29" x2="1625.40" y2="3274.75" style="stroke:#F0F0F0;stroke-width:9.72"/>
	<line x1="1625.40" y1="3235.48" x2="1625.40" y2="3156.94" style="stroke:#F0F0F0;stroke-width:9.72"/>
	<line x1="1625.40" y1="3117.67" x2="1625.40" y2="3039.13" style="stroke:#F0F0F0;stroke-width:9.72"/>
	<line x1="1625.40" y1="2999.86" x2="1625.40" y2="2921.32" style="stroke:#F0F0F0;stroke-width:9.72"/>
	<line x1="1625.40" y1="2882.05" x2="1625.40" y2="2803.51" style="stroke:#F0F0F0;stroke-width:9.72"/>
	<line x1="1625.40" y1="2764.24" x2="1625.40" y2="2685.70" style="stroke:#F0F0F0;stroke-width:9.72"/>
	<line x1="1625.40" y1="2646.43" x2="1625.40" y2="2567.89" style="stroke:#F0F0F0;stroke-width:9.72"/>
	<line x1="1625.40" y1="2528.62" x2="1625.40" y2="2450.08" style="stroke:#F0F0F0;stroke-width:9.72"/>
	<line x1="1625.40" y1="2410.81" x2="1625.40" y2="2332.27" style="stroke:#F0F0F0;stroke-width:9.72"/>
	<line x1="1625.40" y1="2293.00" x2="1625.40" y2="2214.46" style="stroke:#F0F0F0;stroke-width:9.72"/>
	<line x1="1625.40" y1="2175.19" x2="1625.40" y2="2096.65" style="stroke:#F0F0F0;stroke-width:9.72"/>
	<line x1="1625.40" y1="2057.38" x2="1625.40" y2="1978.84" style="stroke:#F0F0F0;stroke-width:9.72"/>
	<line x1="1625.40" y1="1939.57" x2="1625.40" y2="1861.03" style="stroke:#F0F0F0;stroke-width:9.72"/>
	<line x1="1625.40" y1="1821.76" x2="1625.40" y2="1743.22" style="stroke:#F0F0F0;stroke-width:9.72"/>
	<line x1="1625.40" y1="1703.95" x2="1625.40" y2="1625.41" style="stroke:#F0F0F0;stroke-width:9.72"/>
	<line x1="1625.40" y1="1586.14" x2="1625.40" y2="1507.60" style="stroke:#F0F0F0;stroke-width:9.72"/>
	<line x1="1625.40" y1="1468.33" x2="1625.40" y2="1389.79" style="stroke:#F0F0F0;stroke-width:9.72"/>
	<line x1="1625.40" y1="1350.52" x2="1625.40" y2="1271.98" style="stroke:#F0F0F0;stroke-width:9.72"/>
	<line x1="1625.40" y1="1232.71" x2="1625.40" y2="1154.17" style="stroke:#F0F0F0;stroke-width:9.72"/>
	<line x1="1625.40" y1="1114.90" x2="1625.40" y2="1036.36" style="stroke:#F0F0F0;stroke-width:9.72"/>
	<line x1="1625.40" y1="997.09" x2="1625.40" y2="918.55" style="stroke:#F0F0F0;stroke-width:9.72"/>
	<line x1="1625.40" y1="879.28" x2="1625.40" y2="800.74" style="stroke:#F0F0F0;stroke-width:9.72"/>
	<line x1="1625.40" y1="761.47" x2="1625.40" y2="682.93" style="stroke:#F0F0F0;stroke-width:9.72"/>
	<line x1="1625.40" y1="643.66" x2="1625.40" y2="565.12" style="stroke:#F0F0F0;stroke-width:9.72"/>
	<line x1="1625.40" y1="525.85" x2="1625.40" y2="447.31" style="stroke:#F0F0F0;stroke-width:9.72"/>
	<line x1="1625.40" y1="408.04" x2="1625.40" y2="329.50" style="stroke:#F0F0F0;stroke-width:9.72"/>
	<line x1="1625.40" y1="290.23" x2="1625.40" y2="211.69" style="stroke:#F0F0F0;stroke-width:9.72"/>
	<line x1="1625.40" y1="172.42" x2="1625.40" y2="137.45" style="stroke:#F0F0F0;stroke-width:9.72"/>
	<line x1="2423.25" y1="3353.29" x2="2423.25" y2="3274.75" style="stroke:#F0F0F0;stroke-width:9.72"/>
	<line x1="2423.25" y1="3235.48" x2="2423.25" y2="3156.94" style="stroke:#F0F0F0;stroke-width:9.72"/>
	<line x1="2423.25" y1="3117.67" x2="2423.25" y2="3039.13" style="stroke:#F0F0F0;stroke-width:9.72"/>
	<line x1="2423.25" y1="2999.86" x2="2423.25" y2="2921.32" style="stroke:#F0F0F0;stroke-width:9.72"/>
	<line x1="2423.25" y1="2882.05" x2="2423.25" y2="2803.51" style="stroke:#F0F0F0;stroke-width:9.72"/>
	<line x1="2423.25" y1="2764.24" x2="2423.25" y2="2685.70" style="stroke:#F0F0F0;stroke-width:9.72"/>
	<line x1="2423.25" y1="2646.43" x2="2423.25" y2="2567.89" style="stroke:#F0F0F0;stroke-width:9.72"/>
	<line x1="2423.25" y1="2528.62" x2="2423.25" y2="2450.08" style="stroke:#F0F0F0;stroke-width:9.72"/>
	<line x1="2423.25" y1="2410.81" x2="2423.25" y2="2332.27" style="stroke:#F0F0F0;stroke-width:9.72"/>
	<line x1="2423.25" y1="2293.00" x2="2423.25" y2="2214.46" style="stroke:#F0F0F0;stroke-width:9.72"/>
	<line x1="2423.25" y1="2175.19" x2="2423.25" y2="2096.65" style="stroke:#F0F0F0;stroke-width:9.72"/>
	<line x1="2423.25" y1="2057.38" x2="2423.25" y2="1978.84" style="stroke:#F0F0F0;stroke-width:9.72"/>
	<line x1="2423.25" y1="1939.57" x2="2423.25" y2="1861.03" style="stroke:#F0F0F0;stroke-width:9.72"/>
	<line x1="2423.25" y1="1821.76" x2="2423.25" y2="1743.22" style="stroke:#F0F0F0;stroke-width:9.72"/>
	<line x1="2423.25" y1="1703.95" x2="2423.25" y2="1625.41" style="stroke:#F0F0F0;stroke-width:9.72"/>
	<line x1="2423.25" y1="1586.14" x2="2423.25" y2="1507.60" style="stroke:#F0F0F0;stroke-width:9.72"/>
	<line x1="2423.25" y1="1468.33" x2="2423.25" y2="1389.79" style="stroke:#F0F0F0;stroke-width:9.72"/>
	<line x1="2423.25" y1="1350.52" x2="2423.25" y2="1271.98" style="stroke:#F0F0F0;stroke-width:9.72"/>
	<line x1="2423.25" y1="1232.71" x2="2423.25" y2="1154.17" style="stroke:#F0F0F0;stroke-width:9.72"/>
	<line x1="2423.25" y1="1114.90" x2="2423.25" y2="1036.36" style="stroke:#F0F0F0;stroke-width:9.72"/>
	<line x1="2423.25" y1="997.09" x2="2423.25" y2="918.55" style="stroke:#F0F0F0;stroke-width:9.72"/>
	<line x1="2423.25" y1="879.28" x2="2423.25" y2="800.74" style="stroke:#F0F0F0;stroke-width:9.72"/>
	<line x1="2423.25" y1="761.47" x2="2423.25" y2="682.93" style="stroke:#F0F0F0;stroke-width:9.72"/>
	<line x1="2423.25" y1="643.66" x2="2423.25" y2="565.12" style="stroke:#F0F0F0;stroke-width:9.72"/>
	<line x1="2423.25" y1="525.85" x2="2423.25" y2="447.31" style="stroke:#F0F0F0;stroke-width:9.72"/>
	<line x1="2423.25" y1="408.04" x2="2423.25" y2="329.50" style="stroke:#F0F0F0;stroke-width:9.72"/>
	<line x1="2423.25" y1="290.23" x2="2423.25" y2="211.69" style="stroke:#F0F0F0;stroke-width:9.72"/>
	<line x1="2423.25" y1="172.42" x2="2423.25" y2="137.45" style="stroke:#F0F0F0;stroke-width:9.72"/>
	<line x1="3220.93" y1="3353.29" x2="3220.93" y2="3274.75" style="stroke:#F0F0F0;stroke-width:9.72"/>
	<line x1="3220.93" y1="3235.48" x2="3220.93" y2="3156.94" style="stroke:#F0F0F0;stroke-width:9.72"/>
	<line x1="3220.93" y1="3117.67" x2="3220.93" y2="3039.13" style="stroke:#F0F0F0;stroke-width:9.72"/>
	<line x1="3220.93" y1="2999.86" x2="3220.93" y2="2921.32" style="stroke:#F0F0F0;stroke-width:9.72"/>
	<line x1="3220.93" y1="2882.05" x2="3220.93" y2="2803.51" style="stroke:#F0F0F0;stroke-width:9.72"/>
	<line x1="3220.93" y1="2764.24" x2="3220.93" y2="2685.70" style="stroke:#F0F0F0;stroke-width:9.72"/>
	<line x1="3220.93" y1="2646.43" x2="3220.93" y2="2567.89" style="stroke:#F0F0F0;stroke-width:9.72"/>
	<line x1="3220.93" y1="2528.62" x2="3220.93" y2="2450.08" style="stroke:#F0F0F0;stroke-width:9.72"/>
	<line x1="3220.93" y1="2410.81" x2="3220.93" y2="2332.27" style="stroke:#F0F0F0;stroke-width:9.72"/>
	<line x1="3220.93" y1="2293.00" x2="3220.93" y2="2214.46" style="stroke:#F0F0F0;stroke-width:9.72"/>
	<line x1="3220.93" y1="2175.19" x2="3220.93" y2="2096.65" style="stroke:#F0F0F0;stroke-width:9.72"/>
	<line x1="3220.93" y1="2057.38" x2="3220.93" y2="1978.84" style="stroke:#F0F0F0;stroke-width:9.72"/>
	<line x1="3220.93" y1="1939.57" x2="3220.93" y2="1861.03" style="stroke:#F0F0F0;stroke-width:9.72"/>
	<line x1="3220.93" y1="1821.76" x2="3220.93" y2="1743.22" style="stroke:#F0F0F0;stroke-width:9.72"/>
	<line x1="3220.93" y1="1703.95" x2="3220.93" y2="1625.41" style="stroke:#F0F0F0;stroke-width:9.72"/>
	<line x1="3220.93" y1="1586.14" x2="3220.93" y2="1507.60" style="stroke:#F0F0F0;stroke-width:9.72"/>
	<line x1="3220.93" y1="1468.33" x2="3220.93" y2="1389.79" style="stroke:#F0F0F0;stroke-width:9.72"/>
	<line x1="3220.93" y1="1350.52" x2="3220.93" y2="1271.98" style="stroke:#F0F0F0;stroke-width:9.72"/>
	<line x1="3220.93" y1="1232.71" x2="3220.93" y2="1154.17" style="stroke:#F0F0F0;stroke-width:9.72"/>
	<line x1="3220.93" y1="1114.90" x2="3220.93" y2="1036.36" style="stroke:#F0F0F0;stroke-width:9.72"/>
	<line x1="3220.93" y1="997.09" x2="3220.93" y2="918.55" style="stroke:#F0F0F0;stroke-width:9.72"/>
	<line x1="3220.93" y1="879.28" x2="3220.93" y2="800.74" style="stroke:#F0F0F0;stroke-width:9.72"/>
	<line x1="3220.93" y1="761.47" x2="3220.93" y2="682.93" style="stroke:#F0F0F0;stroke-width:9.72"/>
	<line x1="3220.93" y1="643.66" x2="3220.93" y2="565.12" style="stroke:#F0F0F0;stroke-width:9.72"/>
	<line x1="3220.93" y1="525.85" x2="3220.93" y2="447.31" style="stroke:#F0F0F0;stroke-width:9.72"/>
	<line x1="3220.93" y1="408.04" x2="3220.93" y2="329.50" style="stroke:#F0F0F0;stroke-width:9.72"/>
	<line x1="3220.93" y1="290.23" x2="3220.93" y2="211.69" style="stroke:#F0F0F0;stroke-width:9.72"/>
	<line x1="3220.93" y1="172.42" x2="3220.93" y2="137.45" style="stroke:#F0F0F0;stroke-width:9.72"/>
	<line x1="4018.61" y1="3353.29" x2="4018.61" y2="3274.75" style="stroke:#F0F0F0;stroke-width:9.72"/>
	<line x1="4018.61" y1="3235.48" x2="4018.61" y2="3156.94" style="stroke:#F0F0F0;stroke-width:9.72"/>
	<line x1="4018.61" y1="3117.67" x2="4018.61" y2="3039.13" style="stroke:#F0F0F0;stroke-width:9.72"/>
	<line x1="4018.61" y1="2999.86" x2="4018.61" y2="2921.32" style="stroke:#F0F0F0;stroke-width:9.72"/>
	<line x1="4018.61" y1="2882.05" x2="4018.61" y2="2803.51" style="stroke:#F0F0F0;stroke-width:9.72"/>
	<line x1="4018.61" y1="2764.24" x2="4018.61" y2="2685.70" style="stroke:#F0F0F0;stroke-width:9.72"/>
	<line x1="4018.61" y1="2646.43" x2="4018.61" y2="2567.89" style="stroke:#F0F0F0;stroke-width:9.72"/>
	<line x1="4018.61" y1="2528.62" x2="4018.61" y2="2450.08" style="stroke:#F0F0F0;stroke-width:9.72"/>
	<line x1="4018.61" y1="2410.81" x2="4018.61" y2="2332.27" style="stroke:#F0F0F0;stroke-width:9.72"/>
	<line x1="4018.61" y1="2293.00" x2="4018.61" y2="2214.46" style="stroke:#F0F0F0;stroke-width:9.72"/>
	<line x1="4018.61" y1="2175.19" x2="4018.61" y2="2096.65" style="stroke:#F0F0F0;stroke-width:9.72"/>
	<line x1="4018.61" y1="2057.38" x2="4018.61" y2="1978.84" style="stroke:#F0F0F0;stroke-width:9.72"/>
	<line x1="4018.61" y1="1939.57" x2="4018.61" y2="1861.03" style="stroke:#F0F0F0;stroke-width:9.72"/>
	<line x1="4018.61" y1="1821.76" x2="4018.61" y2="1743.22" style="stroke:#F0F0F0;stroke-width:9.72"/>
	<line x1="4018.61" y1="1703.95" x2="4018.61" y2="1625.41" style="stroke:#F0F0F0;stroke-width:9.72"/>
	<line x1="4018.61" y1="1586.14" x2="4018.61" y2="1507.60" style="stroke:#F0F0F0;stroke-width:9.72"/>
	<line x1="4018.61" y1="1468.33" x2="4018.61" y2="1389.79" style="stroke:#F0F0F0;stroke-width:9.72"/>
	<line x1="4018.61" y1="1350.52" x2="4018.61" y2="1271.98" style="stroke:#F0F0F0;stroke-width:9.72"/>
	<line x1="4018.61" y1="1232.71" x2="4018.61" y2="1154.17" style="stroke:#F0F0F0;stroke-width:9.72"/>
	<line x1="4018.61" y1="1114.90" x2="4018.61" y2="1036.36" style="stroke:#F0F0F0;stroke-width:9.72"/>
	<line x1="4018.61" y1="997.09" x2="4018.61" y2="918.55" style="stroke:#F0F0F0;stroke-width:9.72"/>
	<line x1="4018.61" y1="879.28" x2="4018.61" y2="800.74" style="stroke:#F0F0F0;stroke-width:9.72"/>
	<line x1="4018.61" y1="761.47" x2="4018.61" y2="682.93" style="stroke:#F0F0F0;stroke-width:9.72"/>
	<line x1="4018.61" y1="643.66" x2="4018.61" y2="565.12" style="stroke:#F0F0F0;stroke-width:9.72"/>
	<line x1="4018.61" y1="525.85" x2="4018.61" y2="447.31" style="stroke:#F0F0F0;stroke-width:9.72"/>
	<line x1="4018.61" y1="408.04" x2="4018.61" y2="329.50" style="stroke:#F0F0F0;stroke-width:9.72"/>
	<line x1="4018.61" y1="290.23" x2="4018.61" y2="211.69" style="stroke:#F0F0F0;stroke-width:9.72"/>
	<line x1="4018.61" y1="172.42" x2="4018.61" y2="137.45" style="stroke:#F0F0F0;stroke-width:9.72"/>
	<line x1="4816.46" y1="3353.29" x2="4816.46" y2="3274.75" style="stroke:#F0F0F0;stroke-width:9.72"/>
	<line x1="4816.46" y1="3235.48" x2="4816.46" y2="3156.94" style="stroke:#F0F0F0;stroke-width:9.72"/>
	<line x1="4816.46" y1="3117.67" x2="4816.46" y2="3039.13" style="stroke:#F0F0F0;stroke-width:9.72"/>
	<line x1="4816.46" y1="2999.86" x2="4816.46" y2="2921.32" style="stroke:#F0F0F0;stroke-width:9.72"/>
	<line x1="4816.46" y1="2882.05" x2="4816.46" y2="2803.51" style="stroke:#F0F0F0;stroke-width:9.72"/>
	<line x1="4816.46" y1="2764.24" x2="4816.46" y2="2685.70" style="stroke:#F0F0F0;stroke-width:9.72"/>
	<line x1="4816.46" y1="2646.43" x2="4816.46" y2="2567.89" style="stroke:#F0F0F0;stroke-width:9.72"/>
	<line x1="4816.46" y1="2528.62" x2="4816.46" y2="2450.08" style="stroke:#F0F0F0;stroke-width:9.72"/>
	<line x1="4816.46" y1="2410.81" x2="4816.46" y2="2332.27" style="stroke:#F0F0F0;stroke-width:9.72"/>
	<line x1="4816.46" y1="2293.00" x2="4816.46" y2="2214.46" style="stroke:#F0F0F0;stroke-width:9.72"/>
	<line x1="4816.46" y1="2175.19" x2="4816.46" y2="2096.65" style="stroke:#F0F0F0;stroke-width:9.72"/>
	<line x1="4816.46" y1="2057.38" x2="4816.46" y2="1978.84" style="stroke:#F0F0F0;stroke-width:9.72"/>
	<line x1="4816.46" y1="1939.57" x2="4816.46" y2="1861.03" style="stroke:#F0F0F0;stroke-width:9.72"/>
	<line x1="4816.46" y1="1821.76" x2="4816.46" y2="1743.22" style="stroke:#F0F0F0;stroke-width:9.72"/>
	<line x1="4816.46" y1="1703.95" x2="4816.46" y2="1625.41" style="stroke:#F0F0F0;stroke-width:9.72"/>
	<line x1="4816.46" y1="1586.14" x2="4816.46" y2="1507.60" style="stroke:#F0F0F0;stroke-width:9.72"/>
	<line x1="4816.46" y1="1468.33" x2="4816.46" y2="1389.79" style="stroke:#F0F0F0;stroke-width:9.72"/>
	<line x1="4816.46" y1="1350.52" x2="4816.46" y2="1271.98" style="stroke:#F0F0F0;stroke-width:9.72"/>
	<line x1="4816.46" y1="1232.71" x2="4816.46" y2="1154.17" style="stroke:#F0F0F0;stroke-width:9.72"/>
	<line x1="4816.46" y1="1114.90" x2="4816.46" y2="1036.36" style="stroke:#F0F0F0;stroke-width:9.72"/>
	<line x1="4816.46" y1="997.09" x2="4816.46" y2="918.55" style="stroke:#F0F0F0;stroke-width:9.72"/>
	<line x1="4816.46" y1="879.28" x2="4816.46" y2="800.74" style="stroke:#F0F0F0;stroke-width:9.72"/>
	<line x1="4816.46" y1="761.47" x2="4816.46" y2="682.93" style="stroke:#F0F0F0;stroke-width:9.72"/>
	<line x1="4816.46" y1="643.66" x2="4816.46" y2="565.12" style="stroke:#F0F0F0;stroke-width:9.72"/>
	<line x1="4816.46" y1="525.85" x2="4816.46" y2="447.31" style="stroke:#F0F0F0;stroke-width:9.72"/>
	<line x1="4816.46" y1="408.04" x2="4816.46" y2="329.50" style="stroke:#F0F0F0;stroke-width:9.72"/>
	<line x1="4816.46" y1="290.23" x2="4816.46" y2="211.69" style="stroke:#F0F0F0;stroke-width:9.72"/>
	<line x1="4816.46" y1="172.42" x2="4816.46" y2="137.45" style="stroke:#F0F0F0;stroke-width:9.72"/>
	<rect x="827.72" y="1914.41" width="398.92" height="1438.88" style="fill:#3191FF"/>
	<rect x="830.15" y="1916.84" width="394.06" height="1434.02" style="fill:none;stroke:#5FAAFF;stroke-width:4.86"/>
	<rect x="1226.64" y="475.54" width="398.76" height="2877.75" style="fill:#3191FF"/>
	<rect x="1229.07" y="477.97" width="393.90" height="2872.89" style="fill:none;stroke:#5FAAFF;stroke-width:4.86"/>
	<rect x="1625.40" y="2274.18" width="398.92" height="1079.11" style="fill:#3191FF"/>
	<rect x="1627.83" y="2276.61" width="394.06" height="1074.25" style="fill:none;stroke:#5FAAFF;stroke-width:4.86"/>
	<rect x="2024.33" y="1554.64" width="398.92" height="1798.65" style="fill:#3191FF"/>
	<rect x="2026.76" y="1557.07" width="394.06" height="1793.79" style="fill:none;stroke:#5FAAFF;stroke-width:4.86"/>
	<rect x="2423.25" y="1554.64" width="398.76" height="1798.65" style="fill:#3191FF"/>
	<rect x="2425.68" y="1557.07" width="393.90" height="1793.79" style="fill:none;stroke:#5FAAFF;stroke-width:4.86"/>
	<rect x="2822.01" y="2633.75" width="398.93" height="719.54" style="fill:#3191FF"/>
	<rect x="2824.44" y="2636.18" width="394.07" height="714.68" style="fill:none;stroke:#5FAAFF;stroke-width:4.86"/>
	<rect x="4018.61" y="2993.52" width="398.93" height="359.77" style="fill:#3191FF"/>
	<rect x="4021.04" y="2995.95" width="394.07" height="354.91" style="fill:none;stroke:#5FAAFF;stroke-width:4.86"/>
	<rect x="4816.46" y="2993.52" width="398.93" height="359.77" style="fill:#3191FF"/>
	<rect x="4818.89" y="2995.95" width="394.07" height="354.91" style="fill:none;stroke:#5FAAFF;stroke-width:4.86"/>
	<line x1="557.04" y1="3353.29" x2="557.04" y2="137.45" style="stroke:#000000;stroke-width:6.48"/>
	<line x1="557.04" y1="3353.29" x2="511.99" y2="3353.29" style="stroke:#000000;stroke-width:6.48"/>
	<text x="489.54" y="3401.09" style="font-family:'Helvetica';font-size:112.56px;fill:#000000" text-anchor="end">0</text>
	<line x1="557.04" y1="2310.18" x2="511.99" y2="2310.18" style="stroke:#000000;stroke-width:6.48"/>
	<text x="489.54" y="2357.98" style="font-family:'Helvetica';font-size:112.56px;fill:#000000" text-anchor="end">.01</text>
	<line x1="557.04" y1="1267.07" x2="511.99" y2="1267.07" style="stroke:#000000;stroke-width:6.48"/>
	<text x="489.54" y="1314.87" style="font-family:'Helvetica';font-size:112.56px;fill:#000000" text-anchor="end">.02</text>
	<line x1="557.04" y1="223.76" x2="511.99" y2="223.76" style="stroke:#000000;stroke-width:6.48"/>
	<text x="489.54" y="271.56" style="font-family:'Helvetica';font-size:112.56px;fill:#000000" text-anchor="end">.03</text>
	<text x="214.55" y="1745.27" style="font-family:'Helvetica';font-size:112.56px;fill:#000000" transform="rotate(-90 214.55,1745.27)" text-anchor="middle">Density</text>
	<line x1="557.04" y1="3353.29" x2="5286.60" y2="3353.29" style="stroke:#000000;stroke-width:6.48"/>
	<line x1="827.72" y1="3353.29" x2="827.72" y2="3407.70" style="stroke:#000000;stroke-width:6.48"/>
	<text x="827.72" y="3530.50" style="font-family:'Helvetica';font-size:112.56px;fill:#000000" text-anchor="middle">0</text>
	<line x1="1625.40" y1="3353.29" x2="1625.40" y2="3407.70" style="stroke:#000000;stroke-width:6.48"/>
	<text x="1625.40" y="3530.50" style="font-family:'Helvetica';font-size:112.56px;fill:#000000" text-anchor="middle">20</text>
	<line x1="2423.25" y1="3353.29" x2="2423.25" y2="3407.70" style="stroke:#000000;stroke-width:6.48"/>
	<text x="2423.25" y="3530.50" style="font-family:'Helvetica';font-size:112.56px;fill:#000000" text-anchor="middle">40</text>
	<line x1="3220.93" y1="3353.29" x2="3220.93" y2="3407.70" style="stroke:#000000;stroke-width:6.48"/>
	<text x="3220.93" y="3530.50" style="font-family:'Helvetica';font-size:112.56px;fill:#000000" text-anchor="middle">60</text>
	<line x1="4018.61" y1="3353.29" x2="4018.61" y2="3407.70" style="stroke:#000000;stroke-width:6.48"/>
	<text x="4018.61" y="3530.50" style="font-family:'Helvetica';font-size:112.56px;fill:#000000" text-anchor="middle">80</text>
	<line x1="4816.46" y1="3353.29" x2="4816.46" y2="3407.70" style="stroke:#000000;stroke-width:6.48"/>
	<text x="4816.46" y="3530.50" style="font-family:'Helvetica';font-size:112.56px;fill:#000000" text-anchor="middle">100</text>
	<text x="2921.74" y="3721.32" style="font-family:'Helvetica';font-size:112.56px;fill:#000000" text-anchor="middle">gnipc1000</text>
</svg>