<svg xmlns="http://www.w3.org/2000/svg" xmlns:xlink="http://www.w3.org/1999/xlink" version="1.1" width="5.500in" height="4.000in" viewBox="0 0 5400 3927">
	<desc>Stata Graph - Graph</desc>
	<rect x="0" y="0" width="5400" height="3927" style="fill:#FFFFFF;stroke:none"/>
	<rect x="0.00" y="0.00" width="5400.00" height="3927.00" style="fill:#FFFFFF"/>
	<rect x="3.24" y="3.24" width="5393.52" height="3920.52" style="fill:none;stroke:#FFFFFF;stroke-width:6.48"/>
	<rect x="380.70" y="137.45" width="3473.38" height="3215.84" style="fill:#FFFFFF"/>
	<rect x="383.94" y="140.69" width="3466.90" height="3209.36" style="fill:none;stroke:#FFFFFF;stroke-width:6.48"/>
	<line x1="380.70" y1="3053.04" x2="445.50" y2="3053.04" style="stroke:#F0F0F0;stroke-width:9.72"/>
	<line x1="477.90" y1="3053.04" x2="542.70" y2="3053.04" style="stroke:#F0F0F0;stroke-width:9.72"/>
	<line x1="575.10" y1="3053.04" x2="639.90" y2="3053.04" style="stroke:#F0F0F0;stroke-width:9.72"/>
	<line x1="672.30" y1="3053.04" x2="737.10" y2="3053.04" style="stroke:#F0F0F0;stroke-width:9.72"/>
	<line x1="769.50" y1="3053.04" x2="834.30" y2="3053.04" style="stroke:#F0F0F0;stroke-width:9.72"/>
	<line x1="866.70" y1="3053.04" x2="931.50" y2="3053.04" style="stroke:#F0F0F0;stroke-width:9.72"/>
	<line x1="963.90" y1="3053.04" x2="1028.70" y2="3053.04" style="stroke:#F0F0F0;stroke-width:9.72"/>
	<line x1="1061.10" y1="3053.04" x2="1125.90" y2="3053.04" style="stroke:#F0F0F0;stroke-width:9.72"/>
	<line x1="1158.30" y1="3053.04" x2="1223.10" y2="3053.04" style="stroke:#F0F0F0;stroke-width:9.72"/>
	<line x1="1255.50" y1="3053.04" x2="1320.30" y2="3053.04" style="stroke:#F0F0F0;stroke-width:9.72"/>
	<line x1="1352.70" y1="3053.04" x2="1417.50" y2="3053.04" style="stroke:#F0F0F0;stroke-width:9.72"/>
	<line x1="1449.90" y1="3053.04" x2="1514.70" y2="3053.04" style="stroke:#F0F0F0;stroke-width:9.72"/>
	<line x1="1547.10" y1="3053.04" x2="1611.90" y2="3053.04" style="stroke:#F0F0F0;stroke-width:9.72"/>
	<line x1="1644.30" y1="3053.04" x2="1709.10" y2="3053.04" style="stroke:#F0F0F0;stroke-width:9.72"/>
	<line x1="1741.50" y1="3053.04" x2="1806.30" y2="3053.04" style="stroke:#F0F0F0;stroke-width:9.72"/>
	<line x1="1838.70" y1="3053.04" x2="1903.50" y2="3053.04" style="stroke:#F0F0F0;stroke-width:9.72"/>
	<line x1="1935.90" y1="3053.04" x2="2000.70" y2="3053.04" style="stroke:#F0F0F0;stroke-width:9.72"/>
	<line x1="2033.10" y1="3053.04" x2="2097.90" y2="3053.04" style="stroke:#F0F0F0;stroke-width:9.72"/>
	<line x1="2130.30" y1="3053.04" x2="2195.10" y2="3053.04" style="stroke:#F0F0F0;stroke-width:9.72"/>
	<line x1="2227.50" y1="3053.04" x2="2292.30" y2="3053.04" style="stroke:#F0F0F0;stroke-width:9.72"/>
	<line x1="2324.70" y1="3053.04" x2="2389.50" y2="3053.04" style="stroke:#F0F0F0;stroke-width:9.72"/>
	<line x1="2421.90" y1="3053.04" x2="2486.70" y2="3053.04" style="stroke:#F0F0F0;stroke-width:9.72"/>
	<line x1="2519.10" y1="3053.04" x2="2583.90" y2="3053.04" style="stroke:#F0F0F0;stroke-width:9.72"/>
	<line x1="2616.30" y1="3053.04" x2="2681.10" y2="3053.04" style="stroke:#F0F0F0;stroke-width:9.72"/>
	<line x1="2713.50" y1="3053.04" x2="2778.30" y2="3053.04" style="stroke:#F0F0F0;stroke-width:9.72"/>
	<line x1="2810.70" y1="3053.04" x2="2875.50" y2="3053.04" style="stroke:#F0F0F0;stroke-width:9.72"/>
	<line x1="2907.90" y1="3053.04" x2="2972.70" y2="3053.04" style="stroke:#F0F0F0;stroke-width:9.72"/>
	<line x1="3005.10" y1="3053.04" x2="3069.90" y2="3053.04" style="stroke:#F0F0F0;stroke-width:9.72"/>
	<line x1="3102.30" y1="3053.04" x2="3167.10" y2="3053.04" style="stroke:#F0F0F0;stroke-width:9.72"/>
	<line x1="3199.50" y1="3053.04" x2="3264.30" y2="3053.04" style="stroke:#F0F0F0;stroke-width:9.72"/>
	<line x1="3296.70" y1="3053.04" x2="3361.50" y2="3053.04" style="stroke:#F0F0F0;stroke-width:9.72"/>
	<line x1="3393.90" y1="3053.04" x2="3458.70" y2="3053.04" style="stroke:#F0F0F0;stroke-width:9.72"/>
	<line x1="3491.10" y1="3053.04" x2="3555.90" y2="3053.04" style="stroke:#F0F0F0;stroke-width:9.72"/>
	<line x1="3588.30" y1="3053.04" x2="3653.10" y2="3053.04" style="stroke:#F0F0F0;stroke-width:9.72"/>
	<line x1="3685.50" y1="3053.04" x2="3750.30" y2="3053.04" style="stroke:#F0F0F0;stroke-width:9.72"/>
	<line x1="3782.70" y1="3053.04" x2="3847.50" y2="3053.04" style="stroke:#F0F0F0;stroke-width:9.72"/>
	<line x1="380.70" y1="2172.33" x2="445.50" y2="2172.33" style="stroke:#F0F0F0;stroke-width:9.72"/>
	<line x1="477.90" y1="2172.33" x2="542.70" y2="2172.33" style="stroke:#F0F0F0;stroke-width:9.72"/>
	<line x1="575.10" y1="2172.33" x2="639.90" y2="2172.33" style="stroke:#F0F0F0;stroke-width:9.72"/>
	<line x1="672.30" y1="2172.33" x2="737.10" y2="2172.33" style="stroke:#F0F0F0;stroke-width:9.72"/>
	<line x1="769.50" y1="2172.33" x2="834.30" y2="2172.33" style="stroke:#F0F0F0;stroke-width:9.72"/>
	<line x1="866.70" y1="2172.33" x2="931.50" y2="2172.33" style="stroke:#F0F0F0;stroke-width:9.72"/>
	<line x1="963.90" y1="2172.33" x2="1028.70" y2="2172.33" style="stroke:#F0F0F0;stroke-width:9.72"/>
	<line x1="1061.10" y1="2172.33" x2="1125.90" y2="2172.33" style="stroke:#F0F0F0;stroke-width:9.72"/>
	<line x1="1158.30" y1="2172.33" x2="1223.10" y2="2172.33" style="stroke:#F0F0F0;stroke-width:9.72"/>
	<line x1="1255.50" y1="2172.33" x2="1320.30" y2="2172.33" style="stroke:#F0F0F0;stroke-width:9.72"/>
	<line x1="1352.70" y1="2172.33" x2="1417.50" y2="2172.33" style="stroke:#F0F0F0;stroke-width:9.72"/>
	<line x1="1449.90" y1="2172.33" x2="1514.70" y2="2172.33" style="stroke:#F0F0F0;stroke-width:9.72"/>
	<line x1="1547.10" y1="2172.33" x2="1611.90" y2="2172.33" style="stroke:#F0F0F0;stroke-width:9.72"/>
	<line x1="1644.30" y1="2172.33" x2="1709.10" y2="2172.33" style="stroke:#F0F0F0;stroke-width:9.72"/>
	<line x1="1741.50" y1="2172.33" x2="1806.30" y2="2172.33" style="stroke:#F0F0F0;stroke-width:9.72"/>
	<line x1="1838.70" y1="2172.33" x2="1903.50" y2="2172.33" style="stroke:#F0F0F0;stroke-width:9.72"/>
	<line x1="1935.90" y1="2172.33" x2="2000.70" y2="2172.33" style="stroke:#F0F0F0;stroke-width:9.72"/>
	<line x1="2033.10" y1="2172.33" x2="2097.90" y2="2172.33" style="stroke:#F0F0F0;stroke-width:9.72"/>
	<line x1="2130.30" y1="2172.33" x2="2195.10" y2="2172.33" style="stroke:#F0F0F0;stroke-width:9.72"/>
	<line x1="2227.50" y1="2172.33" x2="2292.30" y2="2172.33" style="stroke:#F0F0F0;stroke-width:9.72"/>
	<line x1="2324.70" y1="2172.33" x2="2389.50" y2="2172.33" style="stroke:#F0F0F0;stroke-width:9.72"/>
	<line x1="2421.90" y1="2172.33" x2="2486.70" y2="2172.33" style="stroke:#F0F0F0;stroke-width:9.72"/>
	<line x1="2519.10" y1="2172.33" x2="2583.90" y2="2172.33" style="stroke:#F0F0F0;stroke-width:9.72"/>
	<line x1="2616.30" y1="2172.33" x2="2681.10" y2="2172.33" style="stroke:#F0F0F0;stroke-width:9.72"/>
	<line x1="2713.50" y1="2172.33" x2="2778.30" y2="2172.33" style="stroke:#F0F0F0;stroke-width:9.72"/>
	<line x1="2810.70" y1="2172.33" x2="2875.50" y2="2172.33" style="stroke:#F0F0F0;stroke-width:9.72"/>
	<line x1="2907.90" y1="2172.33" x2="2972.70" y2="2172.33" style="stroke:#F0F0F0;stroke-width:9.72"/>
	<line x1="3005.10" y1="2172.33" x2="3069.90" y2="2172.33" style="stroke:#F0F0F0;stroke-width:9.72"/>
	<line x1="3102.30" y1="2172.33" x2="3167.10" y2="2172.33" style="stroke:#F0F0F0;stroke-width:9.72"/>
	<line x1="3199.50" y1="2172.33" x2="3264.30" y2="2172.33" style="stroke:#F0F0F0;stroke-width:9.72"/>
	<line x1="3296.70" y1="2172.33" x2="3361.50" y2="2172.33" style="stroke:#F0F0F0;stroke-width:9.72"/>
	<line x1="3393.90" y1="2172.33" x2="3458.70" y2="2172.33" style="stroke:#F0F0F0;stroke-width:9.72"/>
	<line x1="3491.10" y1="2172.33" x2="3555.90" y2="2172.33" style="stroke:#F0F0F0;stroke-width:9.72"/>
	<line x1="3588.30" y1="2172.33" x2="3653.10" y2="2172.33" style="stroke:#F0F0F0;stroke-width:9.72"/>
	<line x1="3685.50" y1="2172.33" x2="3750.30" y2="2172.33" style="stroke:#F0F0F0;stroke-width:9.72"/>
	<line x1="3782.70" y1="2172.33" x2="3847.50" y2="2172.33" style="stroke:#F0F0F0;stroke-width:9.72"/>
	<line x1="380.70" y1="1291.61" x2="445.50" y2="1291.61" style="stroke:#F0F0F0;stroke-width:9.72"/>
	<line x1="477.90" y1="1291.61" x2="542.70" y2="1291.61" style="stroke:#F0F0F0;stroke-width:9.72"/>
	<line x1="575.10" y1="1291.61" x2="639.90" y2="1291.61" style="stroke:#F0F0F0;stroke-width:9.72"/>
	<line x1="672.30" y1="1291.61" x2="737.10" y2="1291.61" style="stroke:#F0F0F0;stroke-width:9.72"/>
	<line x1="769.50" y1="1291.61" x2="834.30" y2="1291.61" style="stroke:#F0F0F0;stroke-width:9.72"/>
	<line x1="866.70" y1="1291.61" x2="931.50" y2="1291.61" style="stroke:#F0F0F0;stroke-width:9.72"/>
	<line x1="963.90" y1="1291.61" x2="1028.70" y2="1291.61" style="stroke:#F0F0F0;stroke-width:9.72"/>
	<line x1="1061.10" y1="1291.61" x2="1125.90" y2="1291.61" style="stroke:#F0F0F0;stroke-width:9.72"/>
	<line x1="1158.30" y1="1291.61" x2="1223.10" y2="1291.61" style="stroke:#F0F0F0;stroke-width:9.72"/>
	<line x1="1255.50" y1="1291.61" x2="1320.30" y2="1291.61" style="stroke:#F0F0F0;stroke-width:9.72"/>
	<line x1="1352.70" y1="1291.61" x2="1417.50" y2="1291.61" style="stroke:#F0F0F0;stroke-width:9.72"/>
	<line x1="1449.90" y1="1291.61" x2="1514.70" y2="1291.61" style="stroke:#F0F0F0;stroke-width:9.72"/>
	<line x1="1547.10" y1="1291.61" x2="1611.90" y2="1291.61" style="stroke:#F0F0F0;stroke-width:9.72"/>
	<line x1="1644.30" y1="1291.61" x2="1709.10" y2="1291.61" style="stroke:#F0F0F0;stroke-width:9.72"/>
	<line x1="1741.50" y1="1291.61" x2="1806.30" y2="1291.61" style="stroke:#F0F0F0;stroke-width:9.72"/>
	<line x1="1838.70" y1="1291.61" x2="1903.50" y2="1291.61" style="stroke:#F0F0F0;stroke-width:9.72"/>
	<line x1="1935.90" y1="1291.61" x2="2000.70" y2="1291.61" style="stroke:#F0F0F0;stroke-width:9.72"/>
	<line x1="2033.10" y1="1291.61" x2="2097.90" y2="1291.61" style="stroke:#F0F0F0;stroke-width:9.72"/>
	<line x1="2130.30" y1="1291.61" x2="2195.10" y2="1291.61" style="stroke:#F0F0F0;stroke-width:9.72"/>
	<line x1="2227.50" y1="1291.61" x2="2292.30" y2="1291.61" style="stroke:#F0F0F0;stroke-width:9.72"/>
	<line x1="2324.70" y1="1291.61" x2="2389.50" y2="1291.61" style="stroke:#F0F0F0;stroke-width:9.72"/>
	<line x1="2421.90" y1="1291.61" x2="2486.70" y2="1291.61" style="stroke:#F0F0F0;stroke-width:9.72"/>
	<line x1="2519.10" y1="1291.61" x2="2583.90" y2="1291.61" style="stroke:#F0F0F0;stroke-width:9.72"/>
	<line x1="2616.30" y1="1291.61" x2="2681.10" y2="1291.61" style="stroke:#F0F0F0;stroke-width:9.72"/>
	<line x1="2713.50" y1="1291.61" x2="2778.30" y2="1291.61" style="stroke:#F0F0F0;stroke-width:9.72"/>
	<line x1="2810.70" y1="1291.61" x2="2875.50" y2="1291.61" style="stroke:#F0F0F0;stroke-width:9.72"/>
	<line x1="2907.90" y1="1291.61" x2="2972.70" y2="1291.61" style="stroke:#F0F0F0;stroke-width:9.72"/>
	<line x1="3005.10" y1="1291.61" x2="3069.90" y2="1291.61" style="stroke:#F0F0F0;stroke-width:9.72"/>
	<line x1="3102.30" y1="1291.61" x2="3167.10" y2="1291.61" style="stroke:#F0F0F0;stroke-width:9.72"/>
	<line x1="3199.50" y1="1291.61" x2="3264.30" y2="1291.61" style="stroke:#F0F0F0;stroke-width:9.72"/>
	<line x1="3296.70" y1="1291.61" x2="3361.50" y2="1291.61" style="stroke:#F0F0F0;stroke-width:9.72"/>
	<line x1="3393.90" y1="1291.61" x2="3458.70" y2="1291.61" style="stroke:#F0F0F0;stroke-width:9.72"/>
	<line x1="3491.10" y1="1291.61" x2="3555.90" y2="1291.61" style="stroke:#F0F0F0;stroke-width:9.72"/>
	<line x1="3588.30" y1="1291.61" x2="3653.10" y2="1291.61" style="stroke:#F0F0F0;stroke-width:9.72"/>
	<line x1="3685.50" y1="1291.61" x2="3750.30" y2="1291.61" style="stroke:#F0F0F0;stroke-width:9.72"/>
	<line x1="3782.70" y1="1291.61" x2="3847.50" y2="1291.61" style="stroke:#F0F0F0;stroke-width:9.72"/>
	<line x1="380.70" y1="411.11" x2="445.50" y2="411.11" style="stroke:#F0F0F0;stroke-width:9.72"/>
	<line x1="477.90" y1="411.11" x2="542.70" y2="411.11" style="stroke:#F0F0F0;stroke-width:9.72"/>
	<line x1="575.10" y1="411.11" x2="639.90" y2="411.11" style="stroke:#F0F0F0;stroke-width:9.72"/>
	<line x1="672.30" y1="411.11" x2="737.10" y2="411.11" style="stroke:#F0F0F0;stroke-width:9.72"/>
	<line x1="769.50" y1="411.11" x2="834.30" y2="411.11" style="stroke:#F0F0F0;stroke-width:9.72"/>
	<line x1="866.70" y1="411.11" x2="931.50" y2="411.11" style="stroke:#F0F0F0;stroke-width:9.72"/>
	<line x1="963.90" y1="411.11" x2="1028.70" y2="411.11" style="stroke:#F0F0F0;stroke-width:9.72"/>
	<line x1="1061.10" y1="411.11" x2="1125.90" y2="411.11" style="stroke:#F0F0F0;stroke-width:9.72"/>
	<line x1="1158.30" y1="411.11" x2="1223.10" y2="411.11" style="stroke:#F0F0F0;stroke-width:9.72"/>
	<line x1="1255.50" y1="411.11" x2="1320.30" y2="411.11" style="stroke:#F0F0F0;stroke-width:9.72"/>
	<line x1="1352.70" y1="411.11" x2="1417.50" y2="411.11" style="stroke:#F0F0F0;stroke-width:9.72"/>
	<line x1="1449.90" y1="411.11" x2="1514.70" y2="411.11" style="stroke:#F0F0F0;stroke-width:9.72"/>
	<line x1="1547.10" y1="411.11" x2="1611.90" y2="411.11" style="stroke:#F0F0F0;stroke-width:9.72"/>
	<line x1="1644.30" y1="411.11" x2="1709.10" y2="411.11" style="stroke:#F0F0F0;stroke-width:9.72"/>
	<line x1="1741.50" y1="411.11" x2="1806.30" y2="411.11" style="stroke:#F0F0F0;stroke-width:9.72"/>
	<line x1="1838.70" y1="411.11" x2="1903.50" y2="411.11" style="stroke:#F0F0F0;stroke-width:9.72"/>
	<line x1="1935.90" y1="411.11" x2="2000.70" y2="411.11" style="stroke:#F0F0F0;stroke-width:9.72"/>
	<line x1="2033.10" y1="411.11" x2="2097.90" y2="411.11" style="stroke:#F0F0F0;stroke-width:9.72"/>
	<line x1="2130.30" y1="411.11" x2="2195.10" y2="411.11" style="stroke:#F0F0F0;stroke-width:9.72"/>
	<line x1="2227.50" y1="411.11" x2="2292.30" y2="411.11" style="stroke:#F0F0F0;stroke-width:9.72"/>
	<line x1="2324.70" y1="411.11" x2="2389.50" y2="411.11" style="stroke:#F0F0F0;stroke-width:9.72"/>
	<line x1="2421.90" y1="411.11" x2="2486.70" y2="411.11" style="stroke:#F0F0F0;stroke-width:9.72"/>
	<line x1="2519.10" y1="411.11" x2="2583.90" y2="411.11" style="stroke:#F0F0F0;stroke-width:9.72"/>
	<line x1="2616.30" y1="411.11" x2="2681.10" y2="411.11" style="stroke:#F0F0F0;stroke-width:9.72"/>
	<line x1="2713.50" y1="411.11" x2="2778.30" y2="411.11" style="stroke:#F0F0F0;stroke-width:9.72"/>
	<line x1="2810.70" y1="411.11" x2="2875.50" y2="411.11" style="stroke:#F0F0F0;stroke-width:9.72"/>
	<line x1="2907.90" y1="411.11" x2="2972.70" y2="411.11" style="stroke:#F0F0F0;stroke-width:9.72"/>
	<line x1="3005.10" y1="411.11" x2="3069.90" y2="411.11" style="stroke:#F0F0F0;stroke-width:9.72"/>
	<line x1="3102.30" y1="411.11" x2="3167.10" y2="411.11" style="stroke:#F0F0F0;stroke-width:9.72"/>
	<line x1="3199.50" y1="411.11" x2="3264.30" y2="411.11" style="stroke:#F0F0F0;stroke-width:9.72"/>
	<line x1="3296.70" y1="411.11" x2="3361.50" y2="411.11" style="stroke:#F0F0F0;stroke-width:9.72"/>
	<line x1="3393.90" y1="411.11" x2="3458.70" y2="411.11" style="stroke:#F0F0F0;stroke-width:9.72"/>
	<line x1="3491.10" y1="411.11" x2="3555.90" y2="411.11" style="stroke:#F0F0F0;stroke-width:9.72"/>
	<line x1="3588.30" y1="411.11" x2="3653.10" y2="411.11" style="stroke:#F0F0F0;stroke-width:9.72"/>
	<line x1="3685.50" y1="411.11" x2="3750.30" y2="411.11" style="stroke:#F0F0F0;stroke-width:9.72"/>
	<line x1="3782.70" y1="411.11" x2="3847.50" y2="411.11" style="stroke:#F0F0F0;stroke-width:9.72"/>
	<line x1="534.43" y1="3353.29" x2="534.43" y2="3274.75" style="stroke:#F0F0F0;stroke-width:9.72"/>
	<line x1="534.43" y1="3235.48" x2="534.43" y2="3156.94" style="stroke:#F0F0F0;stroke-width:9.72"/>
	<line x1="534.43" y1="3117.67" x2="534.43" y2="3039.13" style="stroke:#F0F0F0;stroke-width:9.72"/>
	<line x1="534.43" y1="2999.86" x2="534.43" y2="2921.32" style="stroke:#F0F0F0;stroke-width:9.72"/>
	<line x1="534.43" y1="2882.05" x2="534.43" y2="2803.51" style="stroke:#F0F0F0;stroke-width:9.72"/>
	<line x1="534.43" y1="2764.24" x2="534.43" y2="2685.70" style="stroke:#F0F0F0;stroke-width:9.72"/>
	<line x1="534.43" y1="2646.43" x2="534.43" y2="2567.89" style="stroke:#F0F0F0;stroke-width:9.72"/>
	<line x1="534.43" y1="2528.62" x2="534.43" y2="2450.08" style="stroke:#F0F0F0;stroke-width:9.72"/>
	<line x1="534.43" y1="2410.81" x2="534.43" y2="2332.27" style="stroke:#F0F0F0;stroke-width:9.72"/>
	<line x1="534.43" y1="2293.00" x2="534.43" y2="2214.46" style="stroke:#F0F0F0;stroke-width:9.72"/>
	<line x1="534.43" y1="2175.19" x2="534.43" y2="2096.65" style="stroke:#F0F0F0;stroke-width:9.72"/>
	<line x1="534.43" y1="2057.38" x2="534.43" y2="1978.84" style="stroke:#F0F0F0;stroke-width:9.72"/>
	<line x1="534.43" y1="1939.57" x2="534.43" y2="1861.03" style="stroke:#F0F0F0;stroke-width:9.72"/>
	<line x1="534.43" y1="1821.76" x2="534.43" y2="1743.22" style="stroke:#F0F0F0;stroke-width:9.72"/>
	<line x1="534.43" y1="1703.95" x2="534.43" y2="1625.41" style="stroke:#F0F0F0;stroke-width:9.72"/>
	<line x1="534.43" y1="1586.14" x2="534.43" y2="1507.60" style="stroke:#F0F0F0;stroke-width:9.72"/>
	<line x1="534.43" y1="1468.33" x2="534.43" y2="1389.79" style="stroke:#F0F0F0;stroke-width:9.72"/>
	<line x1="534.43" y1="1350.52" x2="534.43" y2="1271.98" style="stroke:#F0F0F0;stroke-width:9.72"/>
	<line x1="534.43" y1="1232.71" x2="534.43" y2="1154.17" style="stroke:#F0F0F0;stroke-width:9.72"/>
	<line x1="534.43" y1="1114.90" x2="534.43" y2="1036.36" style="stroke:#F0F0F0;stroke-width:9.72"/>
	<line x1="534.43" y1="997.09" x2="534.43" y2="918.55" style="stroke:#F0F0F0;stroke-width:9.72"/>
	<line x1="534.43" y1="879.28" x2="534.43" y2="800.74" style="stroke:#F0F0F0;stroke-width:9.72"/>
	<line x1="534.43" y1="761.47" x2="534.43" y2="682.93" style="stroke:#F0F0F0;stroke-width:9.72"/>
	<line x1="534.43" y1="643.66" x2="534.43" y2="565.12" style="stroke:#F0F0F0;stroke-width:9.72"/>
	<line x1="534.43" y1="525.85" x2="534.43" y2="447.31" style="stroke:#F0F0F0;stroke-width:9.72"/>
	<line x1="534.43" y1="408.04" x2="534.43" y2="329.50" style="stroke:#F0F0F0;stroke-width:9.72"/>
	<line x1="534.43" y1="290.23" x2="534.43" y2="211.69" style="stroke:#F0F0F0;stroke-width:9.72"/>
	<line x1="534.43" y1="172.42" x2="534.43" y2="137.45" style="stroke:#F0F0F0;stroke-width:9.72"/>
	<line x1="1346.46" y1="3353.29" x2="1346.46" y2="3274.75" style="stroke:#F0F0F0;stroke-width:9.72"/>
	<line x1="1346.46" y1="3235.48" x2="1346.46" y2="3156.94" style="stroke:#F0F0F0;stroke-width:9.72"/>
	<line x1="1346.46" y1="3117.67" x2="1346.46" y2="3039.13" style="stroke:#F0F0F0;stroke-width:9.72"/>
	<line x1="1346.46" y1="2999.86" x2="1346.46" y2="2921.32" style="stroke:#F0F0F0;stroke-width:9.72"/>
	<line x1="1346.46" y1="2882.05" x2="1346.46" y2="2803.51" style="stroke:#F0F0F0;stroke-width:9.72"/>
	<line x1="1346.46" y1="2764.24" x2="1346.46" y2="2685.70" style="stroke:#F0F0F0;stroke-width:9.72"/>
	<line x1="1346.46" y1="2646.43" x2="1346.46" y2="2567.89" style="stroke:#F0F0F0;stroke-width:9.72"/>
	<line x1="1346.46" y1="2528.62" x2="1346.46" y2="2450.08" style="stroke:#F0F0F0;stroke-width:9.72"/>
	<line x1="1346.46" y1="2410.81" x2="1346.46" y2="2332.27" style="stroke:#F0F0F0;stroke-width:9.72"/>
	<line x1="1346.46" y1="2293.00" x2="1346.46" y2="2214.46" style="stroke:#F0F0F0;stroke-width:9.72"/>
	<line x1="1346.46" y1="2175.19" x2="1346.46" y2="2096.65" style="stroke:#F0F0F0;stroke-width:9.72"/>
	<line x1="1346.46" y1="2057.38" x2="1346.46" y2="1978.84" style="stroke:#F0F0F0;stroke-width:9.72"/>
	<line x1="1346.46" y1="1939.57" x2="1346.46" y2="1861.03" style="stroke:#F0F0F0;stroke-width:9.72"/>
	<line x1="1346.46" y1="1821.76" x2="1346.46" y2="1743.22" style="stroke:#F0F0F0;stroke-width:9.72"/>
	<line x1="1346.46" y1="1703.95" x2="1346.46" y2="1625.41" style="stroke:#F0F0F0;stroke-width:9.72"/>
	<line x1="1346.46" y1="1586.14" x2="1346.46" y2="1507.60" style="stroke:#F0F0F0;stroke-width:9.72"/>
	<line x1="1346.46" y1="1468.33" x2="1346.46" y2="1389.79" style="stroke:#F0F0F0;stroke-width:9.72"/>
	<line x1="1346.46" y1="1350.52" x2="1346.46" y2="1271.98" style="stroke:#F0F0F0;stroke-width:9.72"/>
	<line x1="1346.46" y1="1232.71" x2="1346.46" y2="1154.17" style="stroke:#F0F0F0;stroke-width:9.72"/>
	<line x1="1346.46" y1="1114.90" x2="1346.46" y2="1036.36" style="stroke:#F0F0F0;stroke-width:9.72"/>
	<line x1="1346.46" y1="997.09" x2="1346.46" y2="918.55" style="stroke:#F0F0F0;stroke-width:9.72"/>
	<line x1="1346.46" y1="879.28" x2="1346.46" y2="800.74" style="stroke:#F0F0F0;stroke-width:9.72"/>
	<line x1="1346.46" y1="761.47" x2="1346.46" y2="682.93" style="stroke:#F0F0F0;stroke-width:9.72"/>
	<line x1="1346.46" y1="643.66" x2="1346.46" y2="565.12" style="stroke:#F0F0F0;stroke-width:9.72"/>
	<line x1="1346.46" y1="525.85" x2="1346.46" y2="447.31" style="stroke:#F0F0F0;stroke-width:9.72"/>
	<line x1="1346.46" y1="408.04" x2="1346.46" y2="329.50" style="stroke:#F0F0F0;stroke-width:9.72"/>
	<line x1="1346.46" y1="290.23" x2="1346.46" y2="211.69" style="stroke:#F0F0F0;stroke-width:9.72"/>
	<line x1="1346.46" y1="172.42" x2="1346.46" y2="137.45" style="stroke:#F0F0F0;stroke-width:9.72"/>
	<line x1="2158.65" y1="3353.29" x2="2158.65" y2="3274.75" style="stroke:#F0F0F0;stroke-width:9.72"/>
	<line x1="2158.65" y1="3235.48" x2="2158.65" y2="3156.94" style="stroke:#F0F0F0;stroke-width:9.72"/>
	<line x1="2158.65" y1="3117.67" x2="2158.65" y2="3039.13" style="stroke:#F0F0F0;stroke-width:9.72"/>
	<line x1="2158.65" y1="2999.86" x2="2158.65" y2="2921.32" style="stroke:#F0F0F0;stroke-width:9.72"/>
	<line x1="2158.65" y1="2882.05" x2="2158.65" y2="2803.51" style="stroke:#F0F0F0;stroke-width:9.72"/>
	<line x1="2158.65" y1="2764.24" x2="2158.65" y2="2685.70" style="stroke:#F0F0F0;stroke-width:9.72"/>
	<line x1="2158.65" y1="2646.43" x2="2158.65" y2="2567.89" style="stroke:#F0F0F0;stroke-width:9.72"/>
	<line x1="2158.65" y1="2528.62" x2="2158.65" y2="2450.08" style="stroke:#F0F0F0;stroke-width:9.72"/>
	<line x1="2158.65" y1="2410.81" x2="2158.65" y2="2332.27" style="stroke:#F0F0F0;stroke-width:9.72"/>
	<line x1="2158.65" y1="2293.00" x2="2158.65" y2="2214.46" style="stroke:#F0F0F0;stroke-width:9.72"/>
	<line x1="2158.65" y1="2175.19" x2="2158.65" y2="2096.65" style="stroke:#F0F0F0;stroke-width:9.72"/>
	<line x1="2158.65" y1="2057.38" x2="2158.65" y2="1978.84" style="stroke:#F0F0F0;stroke-width:9.72"/>
	<line x1="2158.65" y1="1939.57" x2="2158.65" y2="1861.03" style="stroke:#F0F0F0;stroke-width:9.72"/>
	<line x1="2158.65" y1="1821.76" x2="2158.65" y2="1743.22" style="stroke:#F0F0F0;stroke-width:9.72"/>
	<line x1="2158.65" y1="1703.95" x2="2158.65" y2="1625.41" style="stroke:#F0F0F0;stroke-width:9.72"/>
	<line x1="2158.65" y1="1586.14" x2="2158.65" y2="1507.60" style="stroke:#F0F0F0;stroke-width:9.72"/>
	<line x1="2158.65" y1="1468.33" x2="2158.65" y2="1389.79" style="stroke:#F0F0F0;stroke-width:9.72"/>
	<line x1="2158.65" y1="1350.52" x2="2158.65" y2="1271.98" style="stroke:#F0F0F0;stroke-width:9.72"/>
	<line x1="2158.65" y1="1232.71" x2="2158.65" y2="1154.17" style="stroke:#F0F0F0;stroke-width:9.72"/>
	<line x1="2158.65" y1="1114.90" x2="2158.65" y2="1036.36" style="stroke:#F0F0F0;stroke-width:9.72"/>
	<line x1="2158.65" y1="997.09" x2="2158.65" y2="918.55" style="stroke:#F0F0F0;stroke-width:9.72"/>
	<line x1="2158.65" y1="879.28" x2="2158.65" y2="800.74" style="stroke:#F0F0F0;stroke-width:9.72"/>
	<line x1="2158.65" y1="761.47" x2="2158.65" y2="682.93" style="stroke:#F0F0F0;stroke-width:9.72"/>
	<line x1="2158.65" y1="643.66" x2="2158.65" y2="565.12" style="stroke:#F0F0F0;stroke-width:9.72"/>
	<line x1="2158.65" y1="525.85" x2="2158.65" y2="447.31" style="stroke:#F0F0F0;stroke-width:9.72"/>
	<line x1="2158.65" y1="408.04" x2="2158.65" y2="329.50" style="stroke:#F0F0F0;stroke-width:9.72"/>
	<line x1="2158.65" y1="290.23" x2="2158.65" y2="211.69" style="stroke:#F0F0F0;stroke-width:9.72"/>
	<line x1="2158.65" y1="172.42" x2="2158.65" y2="137.45" style="stroke:#F0F0F0;stroke-width:9.72"/>
	<line x1="2970.68" y1="3353.29" x2="2970.68" y2="3274.75" style="stroke:#F0F0F0;stroke-width:9.72"/>
	<line x1="2970.68" y1="3235.48" x2="2970.68" y2="3156.94" style="stroke:#F0F0F0;stroke-width:9.72"/>
	<line x1="2970.68" y1="3117.67" x2="2970.68" y2="3039.13" style="stroke:#F0F0F0;stroke-width:9.72"/>
	<line x1="2970.68" y1="2999.86" x2="2970.68" y2="2921.32" style="stroke:#F0F0F0;stroke-width:9.72"/>
	<line x1="2970.68" y1="2882.05" x2="2970.68" y2="2803.51" style="stroke:#F0F0F0;stroke-width:9.72"/>
	<line x1="2970.68" y1="2764.24" x2="2970.68" y2="2685.70" style="stroke:#F0F0F0;stroke-width:9.72"/>
	<line x1="2970.68" y1="2646.43" x2="2970.68" y2="2567.89" style="stroke:#F0F0F0;stroke-width:9.72"/>
	<line x1="2970.68" y1="2528.62" x2="2970.68" y2="2450.08" style="stroke:#F0F0F0;stroke-width:9.72"/>
	<line x1="2970.68" y1="2410.81" x2="2970.68" y2="2332.27" style="stroke:#F0F0F0;stroke-width:9.72"/>
	<line x1="2970.68" y1="2293.00" x2="2970.68" y2="2214.46" style="stroke:#F0F0F0;stroke-width:9.72"/>
	<line x1="2970.68" y1="2175.19" x2="2970.68" y2="2096.65" style="stroke:#F0F0F0;stroke-width:9.72"/>
	<line x1="2970.68" y1="2057.38" x2="2970.68" y2="1978.84" style="stroke:#F0F0F0;stroke-width:9.72"/>
	<line x1="2970.68" y1="1939.57" x2="2970.68" y2="1861.03" style="stroke:#F0F0F0;stroke-width:9.72"/>
	<line x1="2970.68" y1="1821.76" x2="2970.68" y2="1743.22" style="stroke:#F0F0F0;stroke-width:9.72"/>
	<line x1="2970.68" y1="1703.95" x2="2970.68" y2="1625.41" style="stroke:#F0F0F0;stroke-width:9.72"/>
	<line x1="2970.68" y1="1586.14" x2="2970.68" y2="1507.60" style="stroke:#F0F0F0;stroke-width:9.72"/>
	<line x1="2970.68" y1="1468.33" x2="2970.68" y2="1389.79" style="stroke:#F0F0F0;stroke-width:9.72"/>
	<line x1="2970.68" y1="1350.52" x2="2970.68" y2="1271.98" style="stroke:#F0F0F0;stroke-width:9.72"/>
	<line x1="2970.68" y1="1232.71" x2="2970.68" y2="1154.17" style="stroke:#F0F0F0;stroke-width:9.72"/>
	<line x1="2970.68" y1="1114.90" x2="2970.68" y2="1036.36" style="stroke:#F0F0F0;stroke-width:9.72"/>
	<line x1="2970.68" y1="997.09" x2="2970.68" y2="918.55" style="stroke:#F0F0F0;stroke-width:9.72"/>
	<line x1="2970.68" y1="879.28" x2="2970.68" y2="800.74" style="stroke:#F0F0F0;stroke-width:9.72"/>
	<line x1="2970.68" y1="761.47" x2="2970.68" y2="682.93" style="stroke:#F0F0F0;stroke-width:9.72"/>
	<line x1="2970.68" y1="643.66" x2="2970.68" y2="565.12" style="stroke:#F0F0F0;stroke-width:9.72"/>
	<line x1="2970.68" y1="525.85" x2="2970.68" y2="447.31" style="stroke:#F0F0F0;stroke-width:9.72"/>
	<line x1="2970.68" y1="408.04" x2="2970.68" y2="329.50" style="stroke:#F0F0F0;stroke-width:9.72"/>
	<line x1="2970.68" y1="290.23" x2="2970.68" y2="211.69" style="stroke:#F0F0F0;stroke-width:9.72"/>
	<line x1="2970.68" y1="172.42" x2="2970.68" y2="137.45" style="stroke:#F0F0F0;stroke-width:9.72"/>
	<line x1="3782.87" y1="3353.29" x2="3782.87" y2="3274.75" style="stroke:#F0F0F0;stroke-width:9.72"/>
	<line x1="3782.87" y1="3235.48" x2="3782.87" y2="3156.94" style="stroke:#F0F0F0;stroke-width:9.72"/>
	<line x1="3782.87" y1="3117.67" x2="3782.87" y2="3039.13" style="stroke:#F0F0F0;stroke-width:9.72"/>
	<line x1="3782.87" y1="2999.86" x2="3782.87" y2="2921.32" style="stroke:#F0F0F0;stroke-width:9.72"/>
	<line x1="3782.87" y1="2882.05" x2="3782.87" y2="2803.51" style="stroke:#F0F0F0;stroke-width:9.72"/>
	<line x1="3782.87" y1="2764.24" x2="3782.87" y2="2685.70" style="stroke:#F0F0F0;stroke-width:9.72"/>
	<line x1="3782.87" y1="2646.43" x2="3782.87" y2="2567.89" style="stroke:#F0F0F0;stroke-width:9.72"/>
	<line x1="3782.87" y1="2528.62" x2="3782.87" y2="2450.08" style="stroke:#F0F0F0;stroke-width:9.72"/>
	<line x1="3782.87" y1="2410.81" x2="3782.87" y2="2332.27" style="stroke:#F0F0F0;stroke-width:9.72"/>
	<line x1="3782.87" y1="2293.00" x2="3782.87" y2="2214.46" style="stroke:#F0F0F0;stroke-width:9.72"/>
	<line x1="3782.87" y1="2175.19" x2="3782.87" y2="2096.65" style="stroke:#F0F0F0;stroke-width:9.72"/>
	<line x1="3782.87" y1="2057.38" x2="3782.87" y2="1978.84" style="stroke:#F0F0F0;stroke-width:9.72"/>
	<line x1="3782.87" y1="1939.57" x2="3782.87" y2="1861.03" style="stroke:#F0F0F0;stroke-width:9.72"/>
	<line x1="3782.87" y1="1821.76" x2="3782.87" y2="1743.22" style="stroke:#F0F0F0;stroke-width:9.72"/>
	<line x1="3782.87" y1="1703.95" x2="3782.87" y2="1625.41" style="stroke:#F0F0F0;stroke-width:9.72"/>
	<line x1="3782.87" y1="1586.14" x2="3782.87" y2="1507.60" style="stroke:#F0F0F0;stroke-width:9.72"/>
	<line x1="3782.87" y1="1468.33" x2="3782.87" y2="1389.79" style="stroke:#F0F0F0;stroke-width:9.72"/>
	<line x1="3782.87" y1="1350.52" x2="3782.87" y2="1271.98" style="stroke:#F0F0F0;stroke-width:9.72"/>
	<line x1="3782.87" y1="1232.71" x2="3782.87" y2="1154.17" style="stroke:#F0F0F0;stroke-width:9.72"/>
	<line x1="3782.87" y1="1114.90" x2="3782.87" y2="1036.36" style="stroke:#F0F0F0;stroke-width:9.72"/>
	<line x1="3782.87" y1="997.09" x2="3782.87" y2="918.55" style="stroke:#F0F0F0;stroke-width:9.72"/>
	<line x1="3782.87" y1="879.28" x2="3782.87" y2="800.74" style="stroke:#F0F0F0;stroke-width:9.72"/>
	<line x1="3782.87" y1="761.47" x2="3782.87" y2="682.93" style="stroke:#F0F0F0;stroke-width:9.72"/>
	<line x1="3782.87" y1="643.66" x2="3782.87" y2="565.12" style="stroke:#F0F0F0;stroke-width:9.72"/>
	<line x1="3782.87" y1="525.85" x2="3782.87" y2="447.31" style="stroke:#F0F0F0;stroke-width:9.72"/>
	<line x1="3782.87" y1="408.04" x2="3782.87" y2="329.50" style="stroke:#F0F0F0;stroke-width:9.72"/>
	<line x1="3782.87" y1="290.23" x2="3782.87" y2="211.69" style="stroke:#F0F0F0;stroke-width:9.72"/>
	<line x1="3782.87" y1="172.42" x2="3782.87" y2="137.45" style="stroke:#F0F0F0;stroke-width:9.72"/>
	<path d=" M570.54 3244.27 L580.16 3233.84 L589.78 3223.62 L599.40 3213.80 L609.02 3204.39 L618.64 3195.19 L628.26 3186.39 L637.88 3177.80 L647.49 3169.62 L657.11 3159.19 L666.73 3145.49 L676.35 3130.35 L685.97 3110.92 L695.76 3092.10 L705.38 3073.90 L714.99 3056.11 L724.61 3038.72 L734.23 3021.95 L743.85 3005.59 L753.47 2989.63 L763.09 2974.29 L772.71 2959.36 L782.33 2945.05 L791.94 2931.14 L801.56 2917.84 L811.18 2904.96 L820.80 2892.48 L830.42 2880.62 L840.04 2869.16 L849.66 2858.12 L859.28 2847.69 L868.89 2837.67 L878.51 2828.26 L888.13 2815.99 L897.92 2801.26 L907.54 2786.94 L917.16 2771.81 L926.78 2752.38 L936.39 2733.76 L946.01 2715.77 L955.63 2698.38 L965.25 2681.61 L974.87 2665.45 L984.49 2650.11 L994.11 2635.39 L1003.73 2621.27 L1013.34 2607.77 L1022.96 2595.09 L1032.58 2582.82 L1042.20 2571.37 L1051.82 2560.53 L1061.44 2550.50 L1071.06 2540.89 L1080.68 2532.10 L1090.29 2523.92 L1100.08 2516.35 L1109.70 2509.39 L1119.32 2503.26 L1128.94 2497.53 L1138.56 2492.62 L1148.18 2482.60 L1157.79 2472.78 L1167.41 2461.12 L1177.03 2446.40 L1186.65 2432.49 L1196.27 2419.40 L1205.89 2407.33 L1215.51 2395.88 L1225.13 2385.24 L1234.74 2375.43 L1244.36 2366.63 L1253.98 2358.45 L1263.60 2351.09 L1273.22 2344.75 L1282.84 2339.02 L1292.46 2334.11 L1302.24 2327.16 L1311.86 2311.61 L1321.48 2294.84 L1331.10 2274.59 L1340.72 2255.16 L1350.34 2236.75 L1359.96 2219.16 L1369.58 2202.39 L1379.19 2183.58 L1388.81 2160.67 L1398.43 2134.08 L1408.05 2108.72 L1417.67 2079.67 L1427.29 2049.81 L1436.91 2020.97 L1446.53 1988.45 L1456.14 1955.52 L1465.76 1923.41 L1475.38 1892.53 L1485.00 1861.44 L1494.62 1826.26 L1504.24 1792.31 L1514.03 1759.38 L1523.64 1727.68 L1533.26 1697.20 L1542.88 1667.75 L1552.50 1639.52 L1562.12 1612.52 L1571.74 1586.55 L1581.36 1561.80 L1590.98 1538.07 L1600.59 1515.58 L1610.21 1494.31 L1619.83 1474.06 L1629.45 1449.31 L1639.07 1425.17 L1648.69 1402.27 L1658.31 1380.59 L1667.93 1360.13 L1677.54 1340.91 L1687.16 1322.91 L1696.78 1305.93 L1706.40 1290.39 L1716.19 1276.07 L1725.81 1258.69 L1735.43 1237.01 L1745.04 1213.89 L1754.66 1192.21 L1764.28 1171.96 L1773.90 1152.94 L1783.52 1133.10 L1793.14 1110.60 L1802.76 1089.74 L1812.38 1070.31 L1821.99 1052.31 L1831.61 1035.75 L1841.23 1020.61 L1850.85 1007.11 L1860.47 994.02 L1870.09 977.05 L1879.71 961.71 L1889.33 947.80 L1898.94 932.05 L1908.56 902.19 L1918.35 873.76 L1927.97 846.76 L1937.59 821.40 L1947.21 797.26 L1956.83 774.76 L1966.44 753.70 L1976.06 734.27 L1985.68 716.06 L1995.30 698.68 L2004.92 677.20 L2014.54 657.36 L2024.16 638.96 L2033.78 618.09 L2043.39 596.62 L2053.01 576.78 L2062.63 558.57 L2072.25 541.80 L2081.87 526.87 L2091.49 513.58 L2101.11 501.92 L2110.73 485.76 L2120.51 471.24 L2130.13 458.35 L2139.75 447.11 L2149.37 437.49 L2158.99 422.77 L2168.61 403.95 L2178.23 381.04 L2187.84 359.16 L2197.46 338.91 L2207.08 320.30 L2216.70 303.32 L2226.32 287.98 L2235.94 274.28 L2245.56 262.41 L2255.18 251.98 L2264.79 243.19 L2274.41 236.03 L2284.03 230.51 L2293.65 226.62 L2303.27 224.58 L2312.89 223.96 L2322.51 224.98 L2332.29 227.64 L2341.91 232.14 L2351.53 238.07 L2361.15 239.92 L2370.77 242.98 L2380.39 246.66 L2390.01 246.66 L2399.63 248.30 L2409.24 251.57 L2418.86 250.96 L2428.48 251.16 L2438.10 252.80 L2447.72 256.07 L2457.34 260.78 L2466.96 267.12 L2476.57 275.09 L2486.19 284.50 L2495.81 295.55 L2505.43 308.02 L2515.05 322.14 L2524.67 337.89 L2534.46 355.07 L2544.07 373.88 L2553.69 394.34 L2563.31 416.22 L2572.93 439.74 L2582.55 464.70 L2592.17 491.28 L2601.79 519.51 L2611.41 549.17 L2621.03 580.46 L2630.64 613.18 L2640.26 644.07 L2649.88 673.73 L2659.50 704.41 L2669.12 730.38 L2678.74 757.79 L2688.36 786.63 L2697.98 816.90 L2707.59 837.96 L2717.21 858.42 L2726.83 880.51 L2736.62 904.03 L2746.24 929.19 L2755.86 955.77 L2765.48 984.00 L2775.09 1013.86 L2784.71 1045.15 L2794.33 1077.68 L2803.95 1102.01 L2813.57 1125.13 L2823.19 1149.67 L2832.81 1175.44 L2842.43 1202.64 L2852.04 1231.28 L2861.66 1261.34 L2871.28 1292.23 L2880.90 1318.82 L2890.52 1340.50 L2900.14 1363.20 L2909.76 1386.93 L2919.38 1411.88 L2928.99 1438.26 L2938.78 1463.22 L2948.40 1485.51 L2958.02 1509.03 L2967.64 1533.58 L2977.26 1559.35 L2986.88 1580.82 L2996.49 1602.30 L3006.11 1625.00 L3015.73 1648.73 L3025.35 1673.27 L3034.97 1699.25 L3044.59 1726.04 L3054.21 1753.86 L3063.83 1782.90 L3073.44 1812.97 L3083.06 1844.05 L3092.68 1876.37 L3102.30 1909.50 L3111.92 1943.87 L3121.54 1975.98 L3131.16 2006.04 L3140.78 2036.93 L3150.56 2068.83 L3160.18 2101.76 L3169.80 2135.72 L3179.42 2170.69 L3189.04 2206.69 L3198.66 2243.50 L3208.28 2281.34 L3217.89 2318.16 L3227.51 2350.47 L3237.13 2378.29 L3246.75 2407.13 L3256.37 2436.58 L3265.99 2466.85 L3275.61 2498.14 L3285.23 2523.71 L3294.84 2550.10 L3304.46 2577.09 L3314.08 2604.91 L3323.70 2633.34 L3333.32 2662.59 L3342.94 2692.65 L3352.73 2723.33 L3362.34 2749.92 L3371.96 2775.69 L3381.58 2802.08 L3391.20 2829.08 L3400.82 2851.98 L3410.44 2873.87 L3420.06 2896.37 L3429.68 2919.48 L3439.29 2943.00 L3448.91 2967.13" stroke-linejoin="round" style="fill:none;stroke:#1A85FF;stroke-width:9.72"/>
	<path d=" M451.91 3266.98 L462.38 3258.39 L472.84 3250.21 L483.13 3242.23 L493.59 3234.46 L504.06 3227.09 L514.52 3219.94 L524.98 3211.55 L535.44 3199.28 L545.74 3182.10 L556.20 3165.12 L566.66 3148.76 L577.13 3132.81 L587.59 3117.26 L598.05 3102.13 L608.34 3087.19 L618.81 3072.88 L629.27 3058.97 L639.73 3045.47 L650.19 3032.38 L660.66 3019.90 L671.12 3007.63 L681.41 2995.77 L691.88 2984.32 L702.34 2973.27 L712.80 2962.84 L723.26 2952.61 L733.73 2942.80 L744.02 2933.59 L754.48 2924.59 L764.94 2916.21 L775.41 2908.03 L785.87 2900.46 L796.33 2890.64 L806.63 2873.26 L817.09 2855.87 L827.55 2839.10 L838.01 2822.94 L848.48 2807.40 L858.94 2792.26 L869.40 2777.74 L879.69 2763.83 L890.16 2750.54 L900.62 2737.65 L911.08 2725.38 L921.54 2712.08 L932.01 2695.52 L942.30 2679.36 L952.76 2664.02 L963.23 2649.29 L973.69 2635.18 L984.15 2621.48 L994.61 2608.59 L1004.91 2596.32 L1015.37 2584.66 L1025.83 2573.62 L1036.29 2563.19 L1046.76 2553.57 L1057.22 2540.48 L1067.68 2526.37 L1077.97 2513.08 L1088.44 2500.60 L1098.90 2488.53 L1109.36 2477.28 L1119.83 2466.85 L1130.29 2457.03 L1140.58 2447.83 L1151.04 2439.44 L1161.51 2431.67 L1171.97 2424.72 L1182.43 2418.38 L1192.89 2412.65 L1203.19 2403.86 L1213.65 2388.52 L1224.11 2374.20 L1234.58 2360.50 L1245.04 2347.81 L1255.50 2335.95 L1265.96 2324.70 L1276.26 2314.48 L1286.72 2304.45 L1297.18 2285.64 L1307.64 2262.52 L1318.11 2239.00 L1328.57 2216.30 L1338.86 2194.62 L1349.33 2173.96 L1359.79 2153.92 L1370.25 2129.58 L1380.71 2106.06 L1391.18 2083.56 L1401.47 2061.88 L1411.93 2041.22 L1422.39 2021.59 L1432.86 2002.97 L1443.32 1985.18 L1453.78 1968.61 L1464.24 1950.61 L1474.54 1929.55 L1485.00 1904.80 L1495.46 1880.87 L1505.93 1858.17 L1516.39 1836.08 L1526.85 1815.21 L1537.14 1795.38 L1547.61 1770.83 L1558.07 1747.31 L1568.53 1725.02 L1578.99 1703.54 L1589.46 1683.29 L1599.75 1663.86 L1610.21 1645.66 L1620.68 1628.48 L1631.14 1612.32 L1641.60 1597.18 L1652.06 1583.07 L1662.53 1569.98 L1672.82 1558.12 L1683.28 1547.07 L1693.74 1537.26 L1704.21 1528.26 L1714.67 1518.03 L1725.13 1505.76 L1735.43 1494.31 L1745.89 1481.01 L1756.35 1466.08 L1766.81 1452.17 L1777.28 1439.29 L1787.74 1427.42 L1798.03 1416.58 L1808.49 1406.77 L1818.96 1396.33 L1829.42 1383.24 L1839.88 1367.09 L1850.34 1350.72 L1860.81 1335.38 L1871.10 1321.48 L1881.56 1306.75 L1892.03 1289.57 L1902.49 1273.62 L1912.95 1259.09 L1923.41 1245.60 L1933.71 1228.62 L1944.17 1212.26 L1954.63 1197.12 L1965.09 1183.42 L1975.56 1167.46 L1986.02 1139.85 L1996.31 1113.67 L2006.78 1088.72 L2017.24 1065.20 L2027.70 1043.11 L2038.16 1022.45 L2048.63 1003.02 L2059.09 984.82 L2069.38 962.73 L2079.84 942.07 L2090.31 923.05 L2100.77 905.26 L2111.23 889.10 L2121.69 874.37 L2131.99 860.87 L2142.45 849.01 L2152.91 838.78 L2163.38 824.87 L2173.84 811.99 L2184.30 800.54 L2194.59 788.06 L2205.06 772.72 L2215.52 754.72 L2225.98 737.95 L2236.44 722.61 L2246.91 708.70 L2257.37 696.02 L2267.66 684.98 L2278.13 675.16 L2288.59 666.77 L2299.05 659.82 L2309.51 654.09 L2319.98 650.00 L2330.27 647.14 L2340.73 645.71 L2351.19 645.71 L2361.66 646.93 L2372.12 649.80 L2382.58 650.82 L2392.88 650.82 L2403.34 652.25 L2413.80 655.32 L2424.26 659.61 L2434.73 665.54 L2445.19 672.91 L2455.65 681.70 L2465.94 687.63 L2476.41 688.04 L2486.87 689.88 L2497.33 692.95 L2507.79 697.45 L2518.26 703.18 L2528.55 710.34 L2539.01 718.72 L2549.48 728.34 L2559.94 739.38 L2570.40 751.86 L2580.86 765.56 L2591.16 777.83 L2601.62 788.67 L2612.08 800.54 L2622.54 813.83 L2633.01 828.15 L2643.47 843.90 L2653.93 860.87 L2664.23 879.08 L2674.69 898.51 L2685.15 919.16 L2695.61 941.25 L2706.08 964.36 L2716.54 985.43 L2726.83 1000.77 L2737.29 1016.52 L2747.76 1028.79 L2758.22 1041.68 L2768.68 1055.99 L2779.14 1071.54 L2789.44 1088.52 L2799.90 1106.72 L2810.36 1126.35 L2820.83 1147.22 L2831.29 1169.31 L2841.75 1192.83 L2852.21 1217.78 L2862.51 1243.96 L2872.97 1265.23 L2883.43 1282.82 L2893.89 1301.64 L2904.36 1321.48 L2914.82 1342.54 L2925.11 1364.84 L2935.58 1388.36 L2946.04 1412.90 L2956.50 1438.47 L2966.96 1459.94 L2977.43 1476.92 L2987.72 1494.92 L2998.18 1513.94 L3008.64 1533.98 L3019.11 1555.26 L3029.57 1576.32 L3040.03 1593.91 L3050.49 1612.52 L3060.79 1631.95 L3071.25 1652.61 L3081.71 1674.09 L3092.18 1696.38 L3102.64 1719.90 L3113.10 1744.24 L3123.39 1769.60 L3133.86 1792.72 L3144.32 1814.40 L3154.78 1836.90 L3165.24 1860.42 L3175.71 1884.96 L3186.00 1910.12 L3196.46 1936.30 L3206.93 1962.48 L3217.39 1984.98 L3227.85 2008.09 L3238.31 2032.22 L3248.78 2057.18 L3259.07 2082.95 L3269.53 2109.54 L3279.99 2136.94 L3290.46 2165.17 L3300.92 2194.21 L3311.38 2224.07 L3321.68 2254.96 L3332.14 2286.45 L3342.60 2318.77 L3353.06 2352.11 L3363.53 2386.27 L3373.99 2421.04 L3384.28 2456.83 L3394.74 2493.44 L3405.21 2530.87 L3415.67 2565.23 L3426.13 2598.57 L3436.59 2632.93 L3447.06 2667.91 L3457.35 2703.70 L3467.81 2740.11 L3478.28 2777.33 L3488.74 2812.51 L3499.20 2845.64 L3509.66 2874.48 L3519.96 2903.32 L3530.42 2932.98 L3540.88 2963.04 L3551.34 2991.07 L3561.81 3016.84 L3572.27 3043.22" stroke-linejoin="round" style="fill:none;stroke:#D41159;stroke-width:9.72"/>
	<line x1="380.70" y1="3353.29" x2="380.70" y2="137.45" style="stroke:#000000;stroke-width:6.48"/>
	<line x1="380.70" y1="3053.04" x2="335.64" y2="3053.04" style="stroke:#000000;stroke-width:6.48"/>
	<text x="313.20" y="3100.84" style="font-family:'Helvetica';font-size:112.56px;fill:#000000" text-anchor="end">.1</text>
	<line x1="380.70" y1="2172.33" x2="335.64" y2="2172.33" style="stroke:#000000;stroke-width:6.48"/>
	<text x="313.20" y="2220.13" style="font-family:'Helvetica';font-size:112.56px;fill:#000000" text-anchor="end">.2</text>
	<line x1="380.70" y1="1291.61" x2="335.64" y2="1291.61" style="stroke:#000000;stroke-width:6.48"/>
	<text x="313.20" y="1339.41" style="font-family:'Helvetica';font-size:112.56px;fill:#000000" text-anchor="end">.3</text>
	<line x1="380.70" y1="411.11" x2="335.64" y2="411.11" style="stroke:#000000;stroke-width:6.48"/>
	<text x="313.20" y="458.91" style="font-family:'Helvetica';font-size:112.56px;fill:#000000" text-anchor="end">.4</text>
	<line x1="380.70" y1="3353.29" x2="3854.08" y2="3353.29" style="stroke:#000000;stroke-width:6.48"/>
	<line x1="534.43" y1="3353.29" x2="534.43" y2="3407.70" style="stroke:#000000;stroke-width:6.48"/>
	<text x="534.43" y="3530.50" style="font-family:'Helvetica';font-size:112.56px;fill:#000000" text-anchor="middle">5</text>
	<line x1="1346.46" y1="3353.29" x2="1346.46" y2="3407.70" style="stroke:#000000;stroke-width:6.48"/>
	<text x="1346.46" y="3530.50" style="font-family:'Helvetica';font-size:112.56px;fill:#000000" text-anchor="middle">6</text>
	<line x1="2158.65" y1="3353.29" x2="2158.65" y2="3407.70" style="stroke:#000000;stroke-width:6.48"/>
	<text x="2158.65" y="3530.50" style="font-family:'Helvetica';font-size:112.56px;fill:#000000" text-anchor="middle">7</text>
	<line x1="2970.68" y1="3353.29" x2="2970.68" y2="3407.70" style="stroke:#000000;stroke-width:6.48"/>
	<text x="2970.68" y="3530.50" style="font-family:'Helvetica';font-size:112.56px;fill:#000000" text-anchor="middle">8</text>
	<line x1="3782.87" y1="3353.29" x2="3782.87" y2="3407.70" style="stroke:#000000;stroke-width:6.48"/>
	<text x="3782.87" y="3530.50" style="font-family:'Helvetica';font-size:112.56px;fill:#000000" text-anchor="middle">9</text>
	<text x="2117.48" y="3721.32" style="font-family:'Helvetica';font-size:112.56px;fill:#000000" text-anchor="middle">x</text>
	<rect x="3893.06" y="1522.74" width="1354.73" height="445.06" style="fill:#FFFFFF"/>
	<rect x="3896.30" y="1525.98" width="1348.25" height="438.58" style="fill:none;stroke:#FFFFFF;stroke-width:6.48"/>
	<line x1="3941.66" y1="1649.95" x2="4200.86" y2="1649.95" style="stroke:#1A85FF;stroke-width:9.72"/>
	<line x1="3941.66" y1="1840.78" x2="4200.86" y2="1840.78" style="stroke:#D41159;stroke-width:9.72"/>
	<text x="4268.36" y="1697.75" style="font-family:'Helvetica';font-size:112.56px;fill:#000000">kdensity pp_mean</text>
	<text x="4268.36" y="1888.58" style="font-family:'Helvetica';font-size:112.56px;fill:#000000">kdensity np_mean</text>
</svg>